<?xml version="1.0" encoding="UTF-8" standalone="no"?>
<svg
   xmlns:dc="http://purl.org/dc/elements/1.1/"
   xmlns:cc="http://creativecommons.org/ns#"
   xmlns:rdf="http://www.w3.org/1999/02/22-rdf-syntax-ns#"
   xmlns:svg="http://www.w3.org/2000/svg"
   xmlns="http://www.w3.org/2000/svg"
   xmlns:sodipodi="http://sodipodi.sourceforge.net/DTD/sodipodi-0.dtd"
   xmlns:inkscape="http://www.inkscape.org/namespaces/inkscape"
   width="16.440189mm"
   height="28.059347mm"
   viewBox="0 0 16.440189 28.059347"
   version="1.1"
   id="svg8"
   inkscape:version="1.0.2-2 (e86c870879, 2021-01-15)"
   sodipodi:docname="facebook.svg">
  <defs
     id="defs2">
    <style
       id="style10">.cls-1{fill:none;stroke:#062b31;stroke-miterlimit:10;stroke-width:6.5px;}</style>
    <style
       id="style25">.cls-1{fill:none;stroke:#062b31;stroke-miterlimit:10;stroke-width:6.5px;}</style>
  </defs>
  <sodipodi:namedview
     id="base"
     pagecolor="#ffffff"
     bordercolor="#666666"
     borderopacity="1.0"
     inkscape:pageopacity="0.0"
     inkscape:pageshadow="2"
     inkscape:zoom="3.959798"
     inkscape:cx="44.446709"
     inkscape:cy="71.26788"
     inkscape:document-units="mm"
     inkscape:current-layer="layer1"
     inkscape:document-rotation="0"
     showgrid="false"
     inkscape:window-width="1920"
     inkscape:window-height="1017"
     inkscape:window-x="1672"
     inkscape:window-y="-8"
     inkscape:window-maximized="1" />
  <metadata
     id="metadata5">
    <rdf:RDF>
      <cc:Work
         rdf:about="">
        <dc:format>image/svg+xml</dc:format>
        <dc:type
           rdf:resource="http://purl.org/dc/dcmitype/StillImage" />
        <dc:title></dc:title>
      </cc:Work>
    </rdf:RDF>
  </metadata>
  <g
     inkscape:label="Capa 1"
     inkscape:groupmode="layer"
     id="layer1"
     transform="translate(-18.853764,-48.357836)">
    <path
       class="cls-1"
       d="m 119.47185,-167.82823 v 3.99521 h -4.38415 v 4.93183 h 4.38415 v 11.1125 h 5.18848 v -11.1125 h 4.42118 l 0.52917,-4.92919 h -4.95035 v -3.99785 c 0,-0.70644 0.55827,-1.05834 0.79375,-1.27529 0.41539,-0.35455 2.42093,-0.41011 2.42093,-0.41011 h 1.96586 v -4.46881 a 24.675042,24.675042 0 0 0 -3.09033,-0.26458 c -7.4295,0 -7.27869,6.41879 -7.27869,6.41879 z"
       id="path16" />
    <path
       d="M 23.263709,70.837937 V 65.258684 H 21.058735 18.853764 V 61.984632 58.71058 h 2.204971 c 2.053593,0 2.205305,-0.008 2.209803,-0.11693 0.0026,-0.06431 0.02924,-1.079101 0.05909,-2.255086 0.05178,-2.040475 0.06241,-2.165477 0.232625,-2.736215 0.868603,-2.912444 3.197256,-4.824632 6.309756,-5.181296 0.745326,-0.08541 2.166724,-0.08411 3.182448,0.0029 0.92505,0.07925 2.049376,0.247663 2.115127,0.316835 0.04683,0.04927 0.161547,5.891303 0.115798,5.89738 -0.01426,0.0019 -0.988121,0.0301 -2.164107,0.06267 -1.23675,0.03426 -2.248611,0.0918 -2.400162,0.136488 -0.1441,0.04249 -0.347059,0.162317 -0.451017,0.266274 l -0.189013,0.189013 v 1.708984 1.70898 h 2.499294 2.499294 l -0.02793,0.250566 c -0.05469,0.490583 -0.567605,5.402649 -0.605933,5.802924 l -0.03901,0.407421 -1.143892,0.04339 c -0.629136,0.02387 -1.602422,0.04348 -2.162852,0.0436 l -1.018966,2.03e-4 v 5.579253 5.57925 h -3.407685 -3.407688 z m 5.14494,-1.637028 v -5.545841 h 2.270516 2.270519 l 0.03175,-0.150339 c 0.04496,-0.212931 0.304884,-2.719829 0.304884,-2.940576 v -0.183137 h -2.427382 -2.42738 l 0.03033,-2.655991 c 0.03006,-2.632368 0.03173,-2.65879 0.188754,-2.970664 0.264327,-0.525021 0.910145,-1.16019 1.34511,-1.322933 0.489013,-0.182962 1.416047,-0.312526 2.639105,-0.36884 l 0.985554,-0.04538 v -1.46176 -1.461763 l -0.183754,-0.05139 c -0.10106,-0.02826 -0.980543,-0.0506 -1.954408,-0.04963 -1.712836,0.0016 -1.7922,0.0076 -2.430267,0.181964 -1.965454,0.53698 -3.211232,1.661467 -3.84062,3.466696 -0.286253,0.821028 -0.343998,1.377875 -0.344305,3.320134 -1.45e-4,0.943642 -0.01982,2.099077 -0.04372,2.567636 l -0.04345,0.851921 h -2.127843 -2.127845 v 1.637025 1.637027 h 2.171565 2.171565 v 5.545841 5.545844 h 1.77066 1.770661 z"
       id="path44"
       style="fill:#ffffff;stroke-width:0" />
  </g>
</svg>
