<?xml version="1.0" encoding="UTF-8" standalone="no"?>
<svg
   xmlns:dc="http://purl.org/dc/elements/1.1/"
   xmlns:cc="http://creativecommons.org/ns#"
   xmlns:rdf="http://www.w3.org/1999/02/22-rdf-syntax-ns#"
   xmlns:svg="http://www.w3.org/2000/svg"
   xmlns="http://www.w3.org/2000/svg"
   xmlns:sodipodi="http://sodipodi.sourceforge.net/DTD/sodipodi-0.dtd"
   xmlns:inkscape="http://www.inkscape.org/namespaces/inkscape"
   width="24.125767mm"
   height="30.788679mm"
   viewBox="0 0 24.125767 30.788679"
   version="1.1"
   id="svg1223"
   inkscape:version="1.0.2-2 (e86c870879, 2021-01-15)"
   sodipodi:docname="excel.svg">
  <defs
     id="defs1217">
    <clipPath
       id="cp46">
      <path
         transform="matrix(1,0,0,-1,0,768)"
         d="M 0,768 H 1366 V 0 H 0 Z"
         id="path1141" />
    </clipPath>
  </defs>
  <sodipodi:namedview
     id="base"
     pagecolor="#ffffff"
     bordercolor="#666666"
     borderopacity="1.0"
     inkscape:pageopacity="0.0"
     inkscape:pageshadow="2"
     inkscape:zoom="0.35"
     inkscape:cx="1171.3063"
     inkscape:cy="826.75476"
     inkscape:document-units="mm"
     inkscape:current-layer="layer1"
     inkscape:document-rotation="0"
     showgrid="false"
     inkscape:window-width="1216"
     inkscape:window-height="1043"
     inkscape:window-x="1888"
     inkscape:window-y="0"
     inkscape:window-maximized="0" />
  <metadata
     id="metadata1220">
    <rdf:RDF>
      <cc:Work
         rdf:about="">
        <dc:format>image/svg+xml</dc:format>
        <dc:type
           rdf:resource="http://purl.org/dc/dcmitype/StillImage" />
        <dc:title></dc:title>
      </cc:Work>
    </rdf:RDF>
  </metadata>
  <g
     inkscape:label="Capa 1"
     inkscape:groupmode="layer"
     id="layer1"
     transform="translate(204.07479,70.578863)">
    <g
       id="g1199"
       transform="matrix(0.35277777,0,0,0.35277777,-629.32768,-221.21356)">
      <g
         clip-path="url(#cp46)"
         id="g1146">
        <path
           transform="matrix(1,0,0,-1,1269.4033,503.912)"
           d="M 0,0 V -5.759 H -59.536 V 72.31 H -0.001 V 8.981 H 4.425 V 76.916 H -63.962 V -10.359 H 4.426 V 0 Z"
           fill="#ffffff"
           id="path1144" />
      </g>
      <path
         transform="matrix(1,0,0,-1,1227.1074,486.1703)"
         d="m 0,0 -5.649,8.635 h 6.62 L 2.445,6.116 C 2.945,5.109 3.669,4.029 4.209,3.022 h 0.144 c 0.4,1.008 0.9,2.087 1.299,3.094 L 6.84,8.635 h 6.44 L 7.596,-0.72 13.604,-9.355 H 6.98 L 5.325,-6.836 C 4.714,-5.829 3.994,-4.749 3.383,-3.742 H 3.238 C 2.771,-4.749 2.231,-5.793 1.764,-6.836 L 0.433,-9.355 H -6.01 Z"
         fill="#ffffff"
         id="path1151" />
    </g>
  </g>
</svg>
