<?xml version="1.0" encoding="UTF-8" standalone="no"?>
<svg
   xmlns:dc="http://purl.org/dc/elements/1.1/"
   xmlns:cc="http://creativecommons.org/ns#"
   xmlns:rdf="http://www.w3.org/1999/02/22-rdf-syntax-ns#"
   xmlns:svg="http://www.w3.org/2000/svg"
   xmlns="http://www.w3.org/2000/svg"
   xmlns:sodipodi="http://sodipodi.sourceforge.net/DTD/sodipodi-0.dtd"
   xmlns:inkscape="http://www.inkscape.org/namespaces/inkscape"
   width="42.631462"
   height="42.914295"
   viewBox="0 0 42.631462 42.914295"
   version="1.1"
   id="svg22"
   sodipodi:docname="tam-rh__small.svg"
   inkscape:version="1.0.2-2 (e86c870879, 2021-01-15)">
  <metadata
     id="metadata26">
    <rdf:RDF>
      <cc:Work
         rdf:about="">
        <dc:format>image/svg+xml</dc:format>
        <dc:type
           rdf:resource="http://purl.org/dc/dcmitype/StillImage" />
        <dc:title></dc:title>
      </cc:Work>
    </rdf:RDF>
  </metadata>
  <sodipodi:namedview
     pagecolor="#ffffff"
     bordercolor="#666666"
     borderopacity="1"
     objecttolerance="10"
     gridtolerance="10"
     guidetolerance="10"
     inkscape:pageopacity="0"
     inkscape:pageshadow="2"
     inkscape:window-width="1920"
     inkscape:window-height="1017"
     id="namedview24"
     showgrid="false"
     inkscape:zoom="3.9726562"
     inkscape:cx="91.999481"
     inkscape:cy="21.972813"
     inkscape:window-x="1672"
     inkscape:window-y="-8"
     inkscape:window-maximized="1"
     inkscape:current-layer="Grupo_872" />
  <defs
     id="defs6">
    <clipPath
       id="clip-path">
      <rect
         id="Rect치ngulo_814"
         data-name="Rect치ngulo 814"
         width="256"
         height="100"
         transform="translate(0,-0.176)"
         fill="none"
         x="0"
         y="0" />
    </clipPath>
    <clipPath
       id="clip-path-2">
      <rect
         id="Rect치ngulo_813"
         data-name="Rect치ngulo 813"
         width="183.623"
         height="42.918999"
         fill="none"
         x="0"
         y="0" />
    </clipPath>
  </defs>
  <g
     id="Grupo_872"
     data-name="Grupo 872"
     transform="translate(-5.1917587e-4,-1.8676888e-4)">
    <path
       id="Trazado_466"
       data-name="Trazado 466"
       d="m 22.985,20.73 v 0 l -8.439,-9.8 -2.985,2.576 8.44,9.8 a 1.96,1.96 0 0 0 1.349,0.678 1.916,1.916 0 0 0 1.434,-0.475 1.976,1.976 0 0 0 0.2,-2.784"
       fill="#ffffff" />
    <path
       id="Trazado_467"
       data-name="Trazado 467"
       d="m 18.242,42.894 a 1.976,1.976 0 0 0 2.236,-1.65 v -0.6 A 1.987,1.987 0 0 0 18.816,38.992 17.433,17.433 0 0 1 4.161,24.418 L 0.238,24.88 c 0,0.011 0,0.021 0,0.032 a 21.362,21.362 0 0 0 18,17.986"
       fill="#ffffff" />
    <path
       id="Trazado_468"
       data-name="Trazado 468"
       d="m 18.007,0.314 a 21.361,21.361 0 0 0 -17.986,18 1.976,1.976 0 0 0 1.65,2.236 h 0.6 A 1.985,1.985 0 0 0 3.926,18.888 17.433,17.433 0 0 1 18.5,4.232 L 18.416,3.522 18.038,0.309 h -0.032"
       fill="#ffffff" />
    <path
       id="Trazado_469"
       data-name="Trazado 469"
       d="M 38.706,23.948 A 17.434,17.434 0 0 1 24.217,38.686 l 0.484,3.92 h 0.032 a 21.36,21.36 0 0 0 17.88,-18.1 1.975,1.975 0 0 0 -1.661,-2.226 h -0.605 a 1.985,1.985 0 0 0 -1.641,1.671"
       fill="#ffffff" />
    <path
       id="Trazado_470"
       data-name="Trazado 470"
       d="m 23.697,3.927 a 17.433,17.433 0 0 1 14.741,14.489 l 3.92,-0.484 V 17.9 A 21.362,21.362 0 0 0 24.249,0.019 1.976,1.976 0 0 0 22.023,1.682 v 0.6 a 1.986,1.986 0 0 0 1.671,1.642"
       fill="#ffffff" />
  </g>
</svg>
