<svg id="Grupo_516" data-name="Grupo 516" xmlns="http://www.w3.org/2000/svg" xmlns:xlink="http://www.w3.org/1999/xlink" width="99" height="99" viewBox="0 0 99 99">
  <defs>
    <clipPath id="clip-path">
      <rect id="Rectángulo_36" data-name="Rectángulo 36" width="99" height="99" fill="#1d5fbf"/>
    </clipPath>
  </defs>
  <g id="Grupo_15" data-name="Grupo 15" clip-path="url(#clip-path)">
    <path id="Trazado_26" data-name="Trazado 26" d="M97.621,127.239H94.3a24.876,24.876,0,0,0-24.387,19.98,49.49,49.49,0,0,0,63.864,0,24.876,24.876,0,0,0-24.387-19.98H106.42a1.807,1.807,0,0,1-1.807-1.807V123.4a1.82,1.82,0,0,1,1.361-1.751,15.854,15.854,0,0,0,11.705-15.28V95.83a15.831,15.831,0,1,0-31.66.24v10.3A15.853,15.853,0,0,0,97.982,121.72a1.461,1.461,0,0,1,1.1,1.417v2.638a1.464,1.464,0,0,1-1.464,1.464" transform="translate(-52.349 -59.899)" fill="#1d5fbf"/>
    <path id="Trazado_27" data-name="Trazado 27" d="M36.552,62.805a20.823,20.823,0,0,1-7.907-16.331V35.931a20.855,20.855,0,0,1,41.711,0V46.474a20.823,20.823,0,0,1-7.907,16.331A29.993,29.993,0,0,1,85.6,83.362a49.5,49.5,0,1,0-72.2,0A29.993,29.993,0,0,1,36.552,62.805" fill="#1d5fbf"/>
  </g>
</svg>
