<?xml version="1.0" encoding="UTF-8" standalone="no"?>
<!-- Created with Inkscape (http://www.inkscape.org/) -->

<svg
   width="54.648098mm"
   height="55.013927mm"
   viewBox="0 0 54.648098 55.013927"
   version="1.1"
   id="svg109"
   inkscape:version="1.1 (c68e22c387, 2021-05-23)"
   sodipodi:docname="logo-tamrh--circle.svg"
   xmlns:inkscape="http://www.inkscape.org/namespaces/inkscape"
   xmlns:sodipodi="http://sodipodi.sourceforge.net/DTD/sodipodi-0.dtd"
   xmlns="http://www.w3.org/2000/svg"
   xmlns:svg="http://www.w3.org/2000/svg">
  <sodipodi:namedview
     id="namedview111"
     pagecolor="#ffffff"
     bordercolor="#666666"
     borderopacity="1.0"
     inkscape:pageshadow="2"
     inkscape:pageopacity="0.0"
     inkscape:pagecheckerboard="0"
     inkscape:document-units="mm"
     showgrid="false"
     fit-margin-top="0"
     fit-margin-left="0"
     fit-margin-right="0"
     fit-margin-bottom="0"
     inkscape:zoom="0.77771465"
     inkscape:cx="220.5179"
     inkscape:cy="430.10634"
     inkscape:window-width="3440"
     inkscape:window-height="1377"
     inkscape:window-x="1912"
     inkscape:window-y="-8"
     inkscape:window-maximized="1"
     inkscape:current-layer="layer1" />
  <defs
     id="defs106" />
  <g
     inkscape:label="Capa 1"
     inkscape:groupmode="layer"
     id="layer1"
     transform="translate(-46.500679,-34.750764)">
    <path
       d="m 69.883913,89.738064 c 0.66499,0.0963 1.33138,-0.0702 1.87431,-0.47378 0.53763,-0.39934 0.88935,-0.98178 0.99166,-1.64112 l 7e-4,-0.77223 c -0.16933,-1.07738 -1.0287,-1.95651 -2.13007,-2.11808 -9.72009,-1.48167 -17.25225,-8.98101 -18.78648,-18.682051 l -5.02814,0.591609 c 0.002,0.01376 0.004,0.02751 0.006,0.04092 1.82245,11.97363 11.0938,21.23863 23.07202,23.05473"
       fill="#ffffff"
       id="path26"
       style="stroke-width:0.352778" />
    <path
       d="m 69.582143,35.152409 c -11.97363,1.82245 -21.23863,11.094156 -23.05438,23.072019 -0.20179,1.371248 0.74578,2.653595 2.11526,2.86632 l 0.77223,7.05e-4 c 1.07773,-0.169686 1.95686,-1.0287 2.11737,-2.130425 1.48237,-9.71938 8.98137,-17.252244 18.68241,-18.786121 l -0.10725,-0.91052 -0.48436,-4.117975 c -0.0138,0.0021 -0.0275,0.0039 -0.0413,0.006"
       fill="#ffffff"
       id="path28"
       style="stroke-width:0.352778" />
    <path
       d="m 96.114527,65.444802 c -1.425222,9.728202 -8.880475,17.304452 -18.572334,18.895132 l 0.62088,5.02496 c 0.0138,-0.002 0.0275,-0.004 0.0409,-0.006 11.963396,-1.8923 21.174071,-11.21798 22.919617,-23.206423 0.0942,-0.666044 -0.0776,-1.331383 -0.48472,-1.871839 -0.40181,-0.534458 -0.986012,-0.882297 -1.645001,-0.981428 l -0.776111,0.0039 c -1.076325,0.176036 -1.949097,1.040342 -2.103261,2.142067"
       fill="#ffffff"
       id="path30"
       style="stroke-width:0.352778" />
    <path
       d="m 76.876113,39.785052 c 9.728548,1.425222 17.305156,8.880122 18.895126,18.571986 l 5.025321,-0.620889 c -0.002,-0.01376 -0.004,-0.02752 -0.006,-0.04128 C 98.897605,45.732174 89.571925,36.5215 77.583833,34.775955 c -0.66534,-0.09419 -1.33139,0.07761 -1.87184,0.484364 -0.53481,0.402872 -0.88336,0.98672 -0.98178,1.646414 l 0.004,0.773642 c 0.17604,1.076325 1.03999,1.950155 2.14207,2.104672"
       fill="#ffffff"
       id="path32"
       style="stroke-width:0.352778" />
  </g>
</svg>
