<?xml version="1.0" encoding="UTF-8" standalone="no"?>
<svg
   xmlns:dc="http://purl.org/dc/elements/1.1/"
   xmlns:cc="http://creativecommons.org/ns#"
   xmlns:rdf="http://www.w3.org/1999/02/22-rdf-syntax-ns#"
   xmlns:svg="http://www.w3.org/2000/svg"
   xmlns="http://www.w3.org/2000/svg"
   xmlns:sodipodi="http://sodipodi.sourceforge.net/DTD/sodipodi-0.dtd"
   xmlns:inkscape="http://www.inkscape.org/namespaces/inkscape"
   width="31.233179mm"
   height="32.349014mm"
   viewBox="0 0 31.233179 32.349014"
   version="1.1"
   id="svg695"
   inkscape:version="1.0.2-2 (e86c870879, 2021-01-15)"
   sodipodi:docname="add-festivity.svg">
  <defs
     id="defs689">
    <clipPath
       id="cp29">
      <path
         transform="matrix(1,0,0,-1,0,768)"
         d="m 257.5,393.5 h 120 v 120.001 h -120 z"
         id="path400" />
    </clipPath>
    <clipPath
       id="cp20">
      <path
         transform="matrix(1,0,0,-1,0,768)"
         d="M 0,0 H 1366 V 768 H 0 Z"
         id="path313" />
    </clipPath>
  </defs>
  <sodipodi:namedview
     id="base"
     pagecolor="#ffffff"
     bordercolor="#666666"
     borderopacity="1.0"
     inkscape:pageopacity="0.0"
     inkscape:pageshadow="2"
     inkscape:zoom="2.8"
     inkscape:cx="102.92864"
     inkscape:cy="71.641921"
     inkscape:document-units="mm"
     inkscape:current-layer="layer1"
     inkscape:document-rotation="0"
     showgrid="false"
     inkscape:window-width="1258"
     inkscape:window-height="1040"
     inkscape:window-x="1888"
     inkscape:window-y="0"
     inkscape:window-maximized="0" />
  <metadata
     id="metadata692">
    <rdf:RDF>
      <cc:Work
         rdf:about="">
        <dc:format>image/svg+xml</dc:format>
        <dc:type
           rdf:resource="http://purl.org/dc/dcmitype/StillImage" />
        <dc:title></dc:title>
      </cc:Work>
    </rdf:RDF>
  </metadata>
  <g
     inkscape:label="Capa 1"
     inkscape:groupmode="layer"
     id="layer1"
     transform="translate(-25.960791,-116.11716)">
    <g
       clip-path="url(#cp29)"
       id="g407"
       transform="matrix(0.35277777,0,0,0.35277777,-70.532678,20.921171)">
      <g
         id="g770">
        <path
           transform="matrix(1,0,0,-1,357.8428,347.9989)"
           d="m 0,0 c -0.006,-5.151 -4.181,-9.326 -9.332,-9.332 h -61.439 c -5.151,0.006 -9.326,4.181 -9.332,9.332 v 4.144 h 80.1 z m -9.333,78.152 h -48 c -1.164,0 -2.108,-0.944 -2.108,-2.109 0,-1.164 0.944,-2.108 2.108,-2.108 h 48 c 5.154,0 9.332,-4.178 9.332,-9.332 V 8.36 h -80.1 v 56.243 c 0,5.154 4.178,9.332 9.332,9.332 h 3.528 v 4.217 h -3.53 c -7.482,-0.001 -13.547,-6.067 -13.547,-13.549 v -64.6 c 0,-7.483 6.065,-13.549 13.548,-13.549 h 61.438 c 7.483,0 13.549,6.066 13.549,13.549 v 64.6 C 4.218,72.085 -1.848,78.151 -9.33,78.152 h -0.002"
           fill="#ffffff"
           id="path405" />
      </g>
    </g>
    <text
       xml:space="preserve"
       style="font-style:normal;font-weight:normal;font-size:10.5833px;line-height:1.25;font-family:sans-serif;fill:#000000;fill-opacity:1;stroke:none;stroke-width:0.264583"
       x="34.438446"
       y="137.02849"
       id="text767"><tspan
         sodipodi:role="line"
         id="tspan765"
         x="34.438446"
         y="137.02849"
         style="font-size:22.9306px;fill:#ffffff;stroke-width:0.264583">+</tspan></text>
  </g>
</svg>
