<?xml version="1.0" encoding="UTF-8" standalone="no"?>
<svg
   xmlns:dc="http://purl.org/dc/elements/1.1/"
   xmlns:cc="http://creativecommons.org/ns#"
   xmlns:rdf="http://www.w3.org/1999/02/22-rdf-syntax-ns#"
   xmlns:svg="http://www.w3.org/2000/svg"
   xmlns="http://www.w3.org/2000/svg"
   xmlns:sodipodi="http://sodipodi.sourceforge.net/DTD/sodipodi-0.dtd"
   xmlns:inkscape="http://www.inkscape.org/namespaces/inkscape"
   width="6.6012526mm"
   height="25.471262mm"
   viewBox="0 0 6.6012526 25.471262"
   version="1.1"
   id="svg949"
   inkscape:version="1.0.2-2 (e86c870879, 2021-01-15)"
   sodipodi:docname="alert.svg">
  <defs
     id="defs943">
    <clipPath
       id="cp43">
      <path
         transform="matrix(1,0,0,-1,0,768)"
         d="m 1179.5,89.501 h 120 v 120 h -120 z"
         id="path776" />
    </clipPath>
  </defs>
  <sodipodi:namedview
     id="base"
     pagecolor="#ffffff"
     bordercolor="#666666"
     borderopacity="1.0"
     inkscape:pageopacity="0.0"
     inkscape:pageshadow="2"
     inkscape:zoom="0.35"
     inkscape:cx="481.04622"
     inkscape:cy="336.70609"
     inkscape:document-units="mm"
     inkscape:current-layer="layer1"
     inkscape:document-rotation="0"
     showgrid="false"
     inkscape:window-width="1258"
     inkscape:window-height="1040"
     inkscape:window-x="1862"
     inkscape:window-y="0"
     inkscape:window-maximized="0" />
  <metadata
     id="metadata946">
    <rdf:RDF>
      <cc:Work
         rdf:about="">
        <dc:format>image/svg+xml</dc:format>
        <dc:type
           rdf:resource="http://purl.org/dc/dcmitype/StillImage" />
        <dc:title></dc:title>
      </cc:Work>
    </rdf:RDF>
  </metadata>
  <g
     inkscape:label="Capa 1"
     inkscape:groupmode="layer"
     id="layer1"
     transform="translate(21.44348,-59.079846)">
    <g
       clip-path="url(#cp43)"
       id="g783"
       transform="matrix(0.35277777,0,0,0.35277777,-455.41065,-146.37729)">
      <path
         transform="matrix(1,0,0,-1,1241.8574,636.1292)"
         d="m 0,0 h -4.953 c -3.732,-0.004 -6.755,-3.028 -6.76,-6.759 v -4.953 c 0.005,-3.731 3.028,-6.754 6.76,-6.759 H 0 c 3.73,0.004 6.755,3.028 6.759,6.759 v 4.953 C 6.754,-3.028 3.73,-0.004 0,0 m 0,-4.8 c 1.083,0 1.961,-0.878 1.961,-1.961 v -4.953 c 0,-1.083 -0.877,-1.961 -1.96,-1.962 H 0 -4.953 c -1.083,10e-4 -1.961,0.879 -1.961,1.962 v 4.953 c 0,1.083 0.878,1.961 1.961,1.961 H 0"
         fill="#ffffff"
         id="path779" />
      <path
         transform="matrix(1,0,0,-1,1239.2754,582.4012)"
         d="m 0,0 c -5.12,-0.184 -9.165,-4.405 -9.131,-9.528 v -20.154 c 0,-1.325 1.075,-2.4 2.401,-2.4 1.325,0 2.4,1.075 2.4,2.4 v 20.221 c -0.023,2.48 1.914,4.537 4.391,4.664 2.515,0.092 4.628,-1.873 4.72,-4.389 0.002,-0.055 0.003,-0.11 0.003,-0.166 v -32.275 c 0.023,-2.48 -1.914,-4.537 -4.391,-4.664 -2.516,-0.091 -4.629,1.874 -4.721,4.389 -0.002,0.055 -0.003,0.111 -0.003,0.166 v 3.178 h -4.801 v -3 c -0.034,-5.123 4.011,-9.344 9.131,-9.528 5.171,-0.119 9.459,3.978 9.578,9.148 0.002,0.069 0.002,0.137 0.003,0.205 v 32.381 c -0.006,5.173 -4.204,9.361 -9.377,9.355 -0.068,0 -0.137,0 -0.204,-0.002"
         fill="#ffffff"
         id="path781" />
    </g>
  </g>
</svg>
