<?xml version="1.0" encoding="UTF-8" standalone="no"?>
<svg
   xmlns:dc="http://purl.org/dc/elements/1.1/"
   xmlns:cc="http://creativecommons.org/ns#"
   xmlns:rdf="http://www.w3.org/1999/02/22-rdf-syntax-ns#"
   xmlns:svg="http://www.w3.org/2000/svg"
   xmlns="http://www.w3.org/2000/svg"
   xmlns:sodipodi="http://sodipodi.sourceforge.net/DTD/sodipodi-0.dtd"
   xmlns:inkscape="http://www.inkscape.org/namespaces/inkscape"
   width="25.095358mm"
   height="32.260548mm"
   viewBox="0 0 25.095358 32.260548"
   version="1.1"
   id="svg1009"
   inkscape:version="1.0.2-2 (e86c870879, 2021-01-15)"
   sodipodi:docname="bell.svg">
  <defs
     id="defs1003">
    <clipPath
       id="cp32">
      <path
         transform="matrix(1,0,0,-1,0,768)"
         d="m 436.5,228.5 h 120 v 120 h -120 z"
         id="path635" />
    </clipPath>
  </defs>
  <sodipodi:namedview
     id="base"
     pagecolor="#ffffff"
     bordercolor="#666666"
     borderopacity="1.0"
     inkscape:pageopacity="0.0"
     inkscape:pageshadow="2"
     inkscape:zoom="0.35"
     inkscape:cx="713.13859"
     inkscape:cy="680.96481"
     inkscape:document-units="mm"
     inkscape:current-layer="layer1"
     inkscape:document-rotation="0"
     showgrid="false"
     inkscape:window-width="1258"
     inkscape:window-height="1040"
     inkscape:window-x="1914"
     inkscape:window-y="0"
     inkscape:window-maximized="0" />
  <metadata
     id="metadata1006">
    <rdf:RDF>
      <cc:Work
         rdf:about="">
        <dc:format>image/svg+xml</dc:format>
        <dc:type
           rdf:resource="http://purl.org/dc/dcmitype/StillImage" />
        <dc:title></dc:title>
      </cc:Work>
    </rdf:RDF>
  </metadata>
  <g
     inkscape:label="Capa 1"
     inkscape:groupmode="layer"
     id="layer1"
     transform="translate(82.851251,32.005273)">
    <g
       clip-path="url(#cp32)"
       id="g642"
       transform="matrix(0.35277777,0,0,0.35277777,-245.39271,-186.53889)">
      <path
         transform="matrix(1,0,0,-1,526.4219,508.9862)"
         d="m 0,0 -50.048,-7.486 -3.711,24.8 c -1.981,13.352 6.854,25.913 20.09,28.56 0.4,0.021 0.8,0.06 1.2,0.12 0.4,0.06 0.8,0.141 1.185,0.237 13.431,1.343 25.556,-8.082 27.57,-21.429 z m -33.924,-15.62 c -3.422,-0.506 -6.764,1.316 -8.192,4.467 l 14.72,2.2 c -0.444,-3.431 -3.107,-6.152 -6.528,-6.669 m -1.541,81.663 c 4.224,0.634 8.162,-2.277 8.796,-6.501 0.575,-3.836 -1.779,-7.505 -5.507,-8.579 -0.337,-0.039 -0.675,-0.082 -1.012,-0.132 -0.339,-0.05 -0.674,-0.109 -1.008,-0.17 -4.271,-0.069 -7.789,3.337 -7.859,7.608 -0.062,3.877 2.755,7.201 6.59,7.774 m 36.5,-40.528 c -1.976,13.095 -12.265,23.368 -25.363,25.324 4.179,5.52 3.091,13.382 -2.429,17.56 -5.519,4.178 -13.382,3.091 -17.56,-2.429 -4.178,-5.52 -3.09,-13.382 2.429,-17.56 0.074,-0.056 0.148,-0.111 0.223,-0.165 -11.951,-5.704 -18.783,-18.539 -16.84,-31.639 l 4.421,-29.548 7.109,1.063 c 2.158,-6.576 9.238,-10.158 15.814,-8 5.059,1.659 8.517,6.334 8.623,11.657 l 28,4.189 z"
         fill="#ffffff"
         id="path638" />
      <path
         transform="matrix(1,0,0,-1,472.2695,458.3392)"
         d="m 0,0 c -5.642,-4.132 -9.679,-10.09 -11.427,-16.862 -0.368,-1.273 0.365,-2.604 1.639,-2.972 1.273,-0.369 2.604,0.365 2.973,1.638 0.013,0.048 0.026,0.096 0.037,0.145 1.474,5.724 4.896,10.757 9.677,14.233"
         fill="#ffffff"
         id="path640" />
    </g>
  </g>
</svg>
