<?xml version="1.0" encoding="UTF-8" standalone="no"?>
<svg
   xmlns:dc="http://purl.org/dc/elements/1.1/"
   xmlns:cc="http://creativecommons.org/ns#"
   xmlns:rdf="http://www.w3.org/1999/02/22-rdf-syntax-ns#"
   xmlns:svg="http://www.w3.org/2000/svg"
   xmlns="http://www.w3.org/2000/svg"
   xmlns:sodipodi="http://sodipodi.sourceforge.net/DTD/sodipodi-0.dtd"
   xmlns:inkscape="http://www.inkscape.org/namespaces/inkscape"
   width="29.515932mm"
   height="27.191914mm"
   viewBox="0 0 29.515932 27.191914"
   version="1.1"
   id="svg2974"
   inkscape:version="1.0.2-2 (e86c870879, 2021-01-15)"
   sodipodi:docname="clip.svg">
  <defs
     id="defs2968" />
  <sodipodi:namedview
     id="base"
     pagecolor="#ffffff"
     bordercolor="#666666"
     borderopacity="1.0"
     inkscape:pageopacity="0.0"
     inkscape:pageshadow="2"
     inkscape:zoom="0.35"
     inkscape:cx="55.77815"
     inkscape:cy="51.386305"
     inkscape:document-units="mm"
     inkscape:current-layer="layer1"
     inkscape:document-rotation="0"
     showgrid="false"
     inkscape:window-width="1216"
     inkscape:window-height="1043"
     inkscape:window-x="1888"
     inkscape:window-y="0"
     inkscape:window-maximized="0" />
  <metadata
     id="metadata2971">
    <rdf:RDF>
      <cc:Work
         rdf:about="">
        <dc:format>image/svg+xml</dc:format>
        <dc:type
           rdf:resource="http://purl.org/dc/dcmitype/StillImage" />
        <dc:title></dc:title>
      </cc:Work>
    </rdf:RDF>
  </metadata>
  <g
     inkscape:label="Capa 1"
     inkscape:groupmode="layer"
     id="layer1"
     transform="translate(-91.075365,-134.57071)">
    <path
       d="m 95.942503,161.76227 c -1.259769,-0.006 -2.464858,-0.51611 -3.346097,-1.4164 -1.794228,-1.79388 -2.328686,-5.07401 0.217664,-7.62 l 16.002,-16.002 c 1.49789,-1.4979 3.28859,-2.23908 5.17207,-2.14524 3.52919,0.25929 6.33554,3.06563 6.59518,6.59482 0.0942,1.8856 -0.64734,3.67418 -2.14524,5.17208 -3.09844,3.09809 -12.60722,12.52361 -12.70317,12.6178 l -1.19204,-1.20262 c 0.0956,-0.0949 9.60226,-9.51724 12.69718,-12.61286 1.15041,-1.15041 1.7212,-2.49555 1.65171,-3.88973 -0.0847,-1.29328 -0.647,-2.50896 -1.57763,-3.41101 -1.74025,-1.74025 -4.76744,-2.45956 -7.3025,0.0741 l -16.001996,16.002 c -1.786467,1.78646 -1.462264,3.98074 -0.218017,5.22499 0.572911,0.58808 1.359253,0.91969 2.180167,0.92004 0.949677,-0.01 1.921227,-0.48472 2.809522,-1.37336 l 10.456684,-10.45634 c 0.45897,-0.40498 0.73837,-0.97648 0.77611,-1.5875 -0.004,-0.44414 -0.18415,-0.86853 -0.50235,-1.17863 -0.55386,-0.61383 -1.50107,-0.66251 -2.11491,-0.10865 -0.0324,0.0293 -0.0635,0.06 -0.0935,0.0921 l -6.852,6.85201 c -0.32773,0.33337 -0.863957,0.3376 -1.196979,0.01 -0.333728,-0.32808 -0.337961,-0.86395 -0.01023,-1.19732 0.0032,-0.003 0.0067,-0.007 0.01023,-0.01 l 6.851299,-6.85095 c 1.22308,-1.26682 3.24167,-1.30175 4.50814,-0.0783 0.0325,0.031 0.0639,0.0628 0.0945,0.0952 0.63712,0.62688 0.9966,1.48307 0.99836,2.37701 -0.0272,1.06186 -0.48542,2.06693 -1.27035,2.78307 L 99.980045,159.8929 c -1.207912,1.20826 -2.587273,1.85455 -3.988506,1.86972 h -0.04939"
       fill="#ffffff"
       id="path996"
       style="stroke-width:0.352778" />
  </g>
</svg>
