<?xml version="1.0" encoding="UTF-8" standalone="no"?>
<svg
   xmlns:dc="http://purl.org/dc/elements/1.1/"
   xmlns:cc="http://creativecommons.org/ns#"
   xmlns:rdf="http://www.w3.org/1999/02/22-rdf-syntax-ns#"
   xmlns:svg="http://www.w3.org/2000/svg"
   xmlns="http://www.w3.org/2000/svg"
   xmlns:sodipodi="http://sodipodi.sourceforge.net/DTD/sodipodi-0.dtd"
   xmlns:inkscape="http://www.inkscape.org/namespaces/inkscape"
   width="20.91383mm"
   height="29.718039mm"
   viewBox="0 0 20.91383 29.718039"
   version="1.1"
   id="svg3016"
   inkscape:version="1.0.2-2 (e86c870879, 2021-01-15)"
   sodipodi:docname="delete.svg">
  <defs
     id="defs3010" />
  <sodipodi:namedview
     id="base"
     pagecolor="#ffffff"
     bordercolor="#666666"
     borderopacity="1.0"
     inkscape:pageopacity="0.0"
     inkscape:pageshadow="2"
     inkscape:zoom="0.35"
     inkscape:cx="-829.04923"
     inkscape:cy="499.01723"
     inkscape:document-units="mm"
     inkscape:current-layer="layer1"
     inkscape:document-rotation="0"
     showgrid="false"
     inkscape:window-width="1216"
     inkscape:window-height="1043"
     inkscape:window-x="1862"
     inkscape:window-y="0"
     inkscape:window-maximized="0" />
  <metadata
     id="metadata3013">
    <rdf:RDF>
      <cc:Work
         rdf:about="">
        <dc:format>image/svg+xml</dc:format>
        <dc:type
           rdf:resource="http://purl.org/dc/dcmitype/StillImage" />
        <dc:title></dc:title>
      </cc:Work>
    </rdf:RDF>
  </metadata>
  <g
     inkscape:label="Capa 1"
     inkscape:groupmode="layer"
     id="layer1"
     transform="translate(-325.18594,-16.135024)">
    <g
       id="g2991"
       transform="matrix(0.35277777,0,0,0.35277777,97.736214,-190.76917)">
      <path
         transform="matrix(1,0,0,-1,659.6201,657.5399)"
         d="M 0,0 V 0 C -1.325,0 -2.4,1.074 -2.4,2.4 V 51.84 H 2.399 V 2.4 C 2.399,1.074 1.325,0 0,0"
         fill="#ffffff"
         id="path1014" />
      <path
         transform="matrix(1,0,0,-1,674.2598,657.5399)"
         d="M 0,0 V 0 C -1.325,0 -2.399,1.074 -2.399,2.4 V 51.84 H 2.4 V 2.4 C 2.4,1.074 1.326,0 0,0"
         fill="#ffffff"
         id="path1018" />
      <path
         transform="matrix(1,0,0,-1,689.1396,657.5399)"
         d="M 0,0 V 0 C -1.325,0 -2.399,1.074 -2.399,2.4 V 51.84 H 2.4 V 2.4 C 2.4,1.074 1.326,0 0,0"
         fill="#ffffff"
         id="path1022" />
      <path
         transform="matrix(1,0,0,-1,699.2197,608.3402)"
         d="m 0,0 v -50.3 c 0,-4.032 -3.269,-7.3 -7.3,-7.3 h -35.08 c -4.031,0 -7.3,3.268 -7.3,7.3 V 2.4 h -4.799 v -52.7 c 0,-6.682 5.416,-12.1 12.099,-12.1 h 35.082 c 6.683,0 12.101,5.418 12.101,12.1 V 0 c 0,1.326 -1.075,2.4 -2.401,2.4 -1.325,0 -2.4,-1.074 -2.4,-2.4 z"
         fill="#ffffff"
         id="path1026" />
      <path
         transform="matrix(1,0,0,-1,701.8604,600.4198)"
         d="m 0,0 h -54.96 c -1.193,-0.001 -2.161,0.966 -2.161,2.159 -10e-4,1.193 0.966,2.16 2.159,2.161 H -54.96 0 C 1.192,4.32 2.16,3.354 2.16,2.161 2.161,0.968 1.194,0 0.002,0 Z"
         fill="#ffffff"
         id="path1030" />
      <path
         transform="matrix(1,0,0,-1,680.9805,590.82009)"
         d="m 0,0 h -12.721 c -1.192,0 -2.159,0.968 -2.159,2.161 0.001,1.193 0.967,2.159 2.159,2.159 H 0 C 1.192,4.321 2.16,3.354 2.16,2.161 2.161,0.968 1.194,0 0.002,0 Z"
         fill="#ffffff"
         id="path1034" />
    </g>
  </g>
</svg>
