<?xml version="1.0" encoding="UTF-8" standalone="no"?>
<svg
   xmlns:dc="http://purl.org/dc/elements/1.1/"
   xmlns:cc="http://creativecommons.org/ns#"
   xmlns:rdf="http://www.w3.org/1999/02/22-rdf-syntax-ns#"
   xmlns:svg="http://www.w3.org/2000/svg"
   xmlns="http://www.w3.org/2000/svg"
   xmlns:sodipodi="http://sodipodi.sourceforge.net/DTD/sodipodi-0.dtd"
   xmlns:inkscape="http://www.inkscape.org/namespaces/inkscape"
   width="17.187334mm"
   height="25.056461mm"
   viewBox="0 0 17.187334 25.056461"
   version="1.1"
   id="svg852"
   inkscape:version="1.0.2-2 (e86c870879, 2021-01-15)"
   sodipodi:docname="document.svg">
  <defs
     id="defs846">
    <clipPath
       id="cp39">
      <path
         transform="matrix(1,0,0,-1,0,768)"
         d="m 1179.5,568.5 h 120 v 120 h -120 z"
         id="path730" />
    </clipPath>
  </defs>
  <sodipodi:namedview
     id="base"
     pagecolor="#ffffff"
     bordercolor="#666666"
     borderopacity="1.0"
     inkscape:pageopacity="0.0"
     inkscape:pageshadow="2"
     inkscape:zoom="0.35"
     inkscape:cx="455.33715"
     inkscape:cy="315.92222"
     inkscape:document-units="mm"
     inkscape:current-layer="layer1"
     inkscape:document-rotation="0"
     showgrid="false"
     inkscape:window-width="1258"
     inkscape:window-height="1040"
     inkscape:window-x="1810"
     inkscape:window-y="0"
     inkscape:window-maximized="0" />
  <metadata
     id="metadata849">
    <rdf:RDF>
      <cc:Work
         rdf:about="">
        <dc:format>image/svg+xml</dc:format>
        <dc:type
           rdf:resource="http://purl.org/dc/dcmitype/StillImage" />
        <dc:title></dc:title>
      </cc:Work>
    </rdf:RDF>
  </metadata>
  <g
     inkscape:label="Capa 1"
     inkscape:groupmode="layer"
     id="layer1"
     transform="translate(14.641288,-64.578912)">
    <g
       clip-path="url(#cp39)"
       id="g743"
       transform="matrix(0.35277777,0,0,0.35277777,-443.32424,27.488006)">
      <path
         transform="matrix(1,0,0,-1,1244.1983,176.16577)"
         d="m 0,0 h -26.993 c -1.127,0 -2.041,0.914 -2.041,2.041 v 66.944 c 0,1.127 0.914,2.041 2.041,2.041 h 44.594 c 0.299,0.004 0.596,-0.055 0.872,-0.174 0.737,-0.329 1.213,-1.06 1.213,-1.867 v -56.61 c 0.001,-0.543 -0.215,-1.064 -0.6,-1.447 L 8.941,0.841 C 8.44,0.328 7.712,0.107 7.01,0.254 6.079,0.464 5.419,1.292 5.419,2.246 v 11.023 c 0,1.127 0.913,2.041 2.041,2.041 h 3.47 c 1.128,0 2.042,-0.914 2.042,-2.041 0,-1.128 -0.914,-2.042 -2.042,-2.042 H 9.501 V 7.154 l 6.1,6.07 v 53.72 H -24.952 V 4.083 H 0 Z"
         fill="#ffffff"
         id="path733" />
      <path
         transform="matrix(1,0,0,-1,1251.9619,119.92798)"
         d="m 0,0 h -27.152 v 4.083 h 27.15 C 1.126,4.083 2.04,3.169 2.04,2.042 2.04,0.914 1.126,0 -0.002,0"
         fill="#ffffff"
         id="path735" />
      <path
         transform="matrix(1,0,0,-1,1251.9619,130.13507)"
         d="m 0,0 h -27.152 v 4.083 h 27.15 C 1.126,4.083 2.04,3.169 2.04,2.042 2.04,0.914 1.126,0 -0.002,0"
         fill="#ffffff"
         id="path737" />
      <path
         transform="matrix(1,0,0,-1,1251.9619,140.34113)"
         d="m 0,0 h -27.152 v 4.083 h 27.15 C 1.126,4.083 2.04,3.169 2.04,2.042 2.04,0.914 1.126,0 -0.002,0"
         fill="#ffffff"
         id="path739" />
      <path
         transform="matrix(1,0,0,-1,1246.8584,150.54523)"
         d="m 0,0 h -22.049 v 4.08 h 22.047 c 1.127,0 2.041,-0.914 2.041,-2.041 0,-1.128 -0.914,-2.042 -2.041,-2.042"
         fill="#ffffff"
         id="path741" />
    </g>
  </g>
</svg>
