<?xml version="1.0" encoding="UTF-8" standalone="no"?>
<svg
   xmlns:dc="http://purl.org/dc/elements/1.1/"
   xmlns:cc="http://creativecommons.org/ns#"
   xmlns:rdf="http://www.w3.org/1999/02/22-rdf-syntax-ns#"
   xmlns:svg="http://www.w3.org/2000/svg"
   xmlns="http://www.w3.org/2000/svg"
   xmlns:sodipodi="http://sodipodi.sourceforge.net/DTD/sodipodi-0.dtd"
   xmlns:inkscape="http://www.inkscape.org/namespaces/inkscape"
   width="27.739622mm"
   height="26.415047mm"
   viewBox="0 0 27.739622 26.415047"
   version="1.1"
   id="svg904"
   inkscape:version="1.0.2-2 (e86c870879, 2021-01-15)"
   sodipodi:docname="documents.svg">
  <defs
     id="defs898">
    <clipPath
       id="cp38">
      <path
         transform="matrix(1,0,0,-1,0,768)"
         d="m 1000.5,568.5 h 120 v 120 h -120 z"
         id="path719" />
    </clipPath>
  </defs>
  <sodipodi:namedview
     id="base"
     pagecolor="#ffffff"
     bordercolor="#666666"
     borderopacity="1.0"
     inkscape:pageopacity="0.0"
     inkscape:pageshadow="2"
     inkscape:zoom="0.35"
     inkscape:cx="280.99276"
     inkscape:cy="272.77534"
     inkscape:document-units="mm"
     inkscape:current-layer="layer1"
     inkscape:document-rotation="0"
     showgrid="false"
     inkscape:window-width="1258"
     inkscape:window-height="1040"
     inkscape:window-x="1836"
     inkscape:window-y="0"
     inkscape:window-maximized="0" />
  <metadata
     id="metadata901">
    <rdf:RDF>
      <cc:Work
         rdf:about="">
        <dc:format>image/svg+xml</dc:format>
        <dc:type
           rdf:resource="http://purl.org/dc/dcmitype/StillImage" />
        <dc:title></dc:title>
      </cc:Work>
    </rdf:RDF>
  </metadata>
  <g
     inkscape:label="Capa 1"
     inkscape:groupmode="layer"
     id="layer1"
     transform="translate(-31.487333,-75.994858)">
    <g
       clip-path="url(#cp38)"
       id="g728"
       transform="matrix(0.35277777,0,0,0.35277777,-328.97623,39.453607)">
      <path
         transform="matrix(1,0,0,-1,1058.4053,122.39478)"
         d="m 0,0 c -14.538,0 -23.465,4.49 -23.465,7.708 0,3.218 8.928,7.709 23.465,7.709 14.537,0 23.464,-4.49 23.464,-7.709 C 23.464,4.489 14.537,0 0,0 m 0,-6.099 c -14.538,0 -23.465,4.49 -23.465,7.708 0.002,0.156 0.023,0.31 0.062,0.461 1.548,-1.091 3.236,-1.966 5.019,-2.6 C -12.466,-2.533 -6.247,-3.5 0,-3.391 6.246,-3.5 12.465,-2.533 18.383,-0.53 c 1.784,0.634 3.472,1.509 5.02,2.6 0.039,-0.151 0.06,-0.306 0.061,-0.462 C 23.464,-1.611 14.537,-6.1 0,-6.1 m 0,-6.098 c -14.538,0 -23.464,4.49 -23.464,7.708 10e-4,0.156 0.022,0.31 0.061,0.461 1.548,-1.091 3.236,-1.966 5.019,-2.6 C -12.466,-8.632 -6.247,-9.6 0,-9.49 c 6.246,-0.11 12.465,0.858 18.383,2.861 1.784,0.634 3.472,1.509 5.02,2.6 0.039,-0.151 0.06,-0.306 0.061,-0.462 0,-3.219 -8.927,-7.708 -23.464,-7.708 m 0,-6.098 c -14.538,0 -23.464,4.49 -23.464,7.709 10e-4,0.155 0.022,0.31 0.061,0.461 1.548,-1.091 3.236,-1.965 5.019,-2.6 5.918,-2.002 12.137,-2.971 18.384,-2.861 6.246,-0.11 12.465,0.859 18.383,2.861 1.784,0.634 3.472,1.509 5.02,2.6 0.039,-0.151 0.06,-0.306 0.061,-0.462 0,-3.219 -8.927,-7.709 -23.464,-7.709 m 0,-6.098 c -14.538,0 -23.464,4.49 -23.464,7.708 10e-4,0.155 0.022,0.31 0.061,0.461 1.548,-1.091 3.236,-1.965 5.019,-2.6 5.918,-2.003 12.137,-2.97 18.384,-2.861 6.246,-0.109 12.465,0.858 18.383,2.861 1.784,0.634 3.473,1.509 5.02,2.6 0.039,-0.151 0.06,-0.306 0.061,-0.462 0,-3.219 -8.927,-7.708 -23.464,-7.708 m 0,-6.098 c -14.538,0 -23.464,4.49 -23.464,7.708 10e-4,0.156 0.022,0.31 0.061,0.461 1.548,-1.091 3.236,-1.966 5.02,-2.6 5.917,-2.003 12.136,-2.97 18.383,-2.861 6.246,-0.109 12.465,0.858 18.383,2.861 1.784,0.634 3.473,1.509 5.02,2.6 0.039,-0.151 0.06,-0.306 0.061,-0.462 0,-3.219 -8.927,-7.708 -23.464,-7.708 M 26.853,7.705 c 0,3.27 -3.008,6.194 -8.47,8.236 C 12.465,17.944 6.246,18.913 0,18.805 c -6.247,0.109 -12.466,-0.859 -18.383,-2.861 -5.414,-2.024 -8.416,-4.916 -8.468,-8.151 v -30.665 c 0.053,-3.235 3.054,-6.127 8.468,-8.151 5.917,-2.003 12.136,-2.971 18.383,-2.861 6.246,-0.11 12.465,0.858 18.383,2.861 5.462,2.041 8.47,4.966 8.47,8.236 v 0.092 30.311 0.092"
         fill="#ffffff"
         id="path722" />
      <path
         transform="matrix(1,0,0,-1,1022.8945,178.4588)"
         d="m 0,0 -1.108,71.449 4.067,0.063 1.048,-67.436 68.355,0.192 1.03,65.178 h -4.3 c -1.124,0 -2.035,0.911 -2.035,2.034 0,1.124 0.911,2.035 2.035,2.035 h 8.432 l -1.153,-73.3 z"
         fill="#ffffff"
         id="path724" />
      <path
         transform="matrix(1,0,0,-1,1061.8516,174.44513)"
         d="m 0,0 v 0.01 c 1.097,-0.784 2.273,-1.449 3.512,-1.983 l 0.536,-0.206 h 31.765 v 1.371 C 31.734,-1.673 27.574,-2.093 23.404,-2.061 8.866,-2.061 -0.06,2.429 -0.06,5.648 V 5.653 C -0.054,5.798 0.068,5.912 0.214,5.906 0.263,5.904 0.311,5.888 0.352,5.86 1.807,4.891 3.375,4.102 5.021,3.511 10.939,1.509 17.158,0.541 23.404,0.65 27.57,0.631 31.727,1.028 35.813,1.835 V 5.291 C 31.734,4.426 27.574,4.006 23.404,4.038 c -14.538,0 -23.464,4.49 -23.464,7.708 0,3.218 8.927,7.709 23.464,7.709 4.17,0.033 8.33,-0.388 12.409,-1.253 v 3.457 C 31.727,22.466 27.57,22.863 23.404,22.844 17.158,22.954 10.939,21.986 5.021,19.983 -0.393,17.959 -3.395,15.067 -3.445,11.832 V 3.774 c 0,-0.418 0.163,-0.819 0.455,-1.119 0.923,-0.965 1.924,-1.852 2.992,-2.652"
         fill="#ffffff"
         id="path726" />
    </g>
  </g>
</svg>
