<?xml version="1.0" encoding="UTF-8" standalone="no"?>
<svg
   xmlns:dc="http://purl.org/dc/elements/1.1/"
   xmlns:cc="http://creativecommons.org/ns#"
   xmlns:rdf="http://www.w3.org/1999/02/22-rdf-syntax-ns#"
   xmlns:svg="http://www.w3.org/2000/svg"
   xmlns="http://www.w3.org/2000/svg"
   xmlns:sodipodi="http://sodipodi.sourceforge.net/DTD/sodipodi-0.dtd"
   xmlns:inkscape="http://www.inkscape.org/namespaces/inkscape"
   width="29.438086mm"
   height="23.809507mm"
   viewBox="0 0 29.438086 23.809507"
   version="1.1"
   id="svg1183"
   inkscape:version="1.0.2-2 (e86c870879, 2021-01-15)"
   sodipodi:docname="edit.svg">
  <defs
     id="defs1177" />
  <sodipodi:namedview
     id="base"
     pagecolor="#ffffff"
     bordercolor="#666666"
     borderopacity="1.0"
     inkscape:pageopacity="0.0"
     inkscape:pageshadow="2"
     inkscape:zoom="0.35"
     inkscape:cx="55.631024"
     inkscape:cy="44.994459"
     inkscape:document-units="mm"
     inkscape:current-layer="layer1"
     inkscape:document-rotation="0"
     showgrid="false"
     inkscape:window-width="1258"
     inkscape:window-height="1040"
     inkscape:window-x="1706"
     inkscape:window-y="0"
     inkscape:window-maximized="0" />
  <metadata
     id="metadata1180">
    <rdf:RDF>
      <cc:Work
         rdf:about="">
        <dc:format>image/svg+xml</dc:format>
        <dc:type
           rdf:resource="http://purl.org/dc/dcmitype/StillImage" />
        <dc:title></dc:title>
      </cc:Work>
    </rdf:RDF>
  </metadata>
  <g
     inkscape:label="Capa 1"
     inkscape:groupmode="layer"
     id="layer1"
     transform="translate(-91.114292,-136.26188)">
    <path
       d="m 120.33942,144.9916 -6.00357,-8.27052 c -0.36089,-0.49742 -1.05728,-0.60784 -1.55469,-0.24695 l -18.335628,13.3096 c -0.188384,0.13653 -0.329142,0.32879 -0.402873,0.54928 l -2.884311,8.62295 c -0.148519,0.44344 0.09066,0.92321 0.534106,1.07173 0.08678,0.0289 0.1778,0.0437 0.269169,0.0437 l 9.140827,-0.003 c 0.2353,3.5e-4 0.46461,-0.0737 0.65511,-0.21167 l 0.3563,-0.25859 c 0.25435,-0.1845 0.31186,-0.53939 0.12912,-0.7948 l -0.23672,-0.3175 -0.43885,-0.58315 -3.862212,-5.32094 c -0.261408,-0.37007 -0.764116,-0.4759 -1.152877,-0.24307 -0.395817,0.24871 -0.515409,0.77153 -0.266348,1.16734 0.01023,0.0162 0.02081,0.0318 0.03175,0.0469 l 3.501672,4.82389 h -4.079169 l -1.781175,-2.45393 1.631597,-4.87715 17.716502,-12.86016 5.32165,7.33143 -15.71096,11.40425 0.98531,1.37583 16.19003,-11.75173 c 0.49742,-0.36125 0.60784,-1.05693 0.24695,-1.5547"
       fill="#ffffff"
       id="path989"
       style="stroke-width:0.352778" />
  </g>
</svg>
