<?xml version="1.0" encoding="UTF-8" standalone="no"?>
<svg
   xmlns:dc="http://purl.org/dc/elements/1.1/"
   xmlns:cc="http://creativecommons.org/ns#"
   xmlns:rdf="http://www.w3.org/1999/02/22-rdf-syntax-ns#"
   xmlns:svg="http://www.w3.org/2000/svg"
   xmlns="http://www.w3.org/2000/svg"
   xmlns:sodipodi="http://sodipodi.sourceforge.net/DTD/sodipodi-0.dtd"
   xmlns:inkscape="http://www.inkscape.org/namespaces/inkscape"
   width="26.149652mm"
   height="32.072796mm"
   viewBox="0 0 26.149652 32.072796"
   version="1.1"
   id="svg1191"
   inkscape:version="1.0.2-2 (e86c870879, 2021-01-15)"
   sodipodi:docname="download.svg">
  <defs
     id="defs1185">
    <clipPath
       id="cp40">
      <path
         transform="matrix(1,0,0,-1,0,768)"
         d="m 1000.5,391.5 h 120 v 120 h -120 z"
         id="path1083" />
    </clipPath>
  </defs>
  <sodipodi:namedview
     id="base"
     pagecolor="#ffffff"
     bordercolor="#666666"
     borderopacity="1.0"
     inkscape:pageopacity="0.0"
     inkscape:pageshadow="2"
     inkscape:zoom="0.35"
     inkscape:cx="383.70238"
     inkscape:cy="203.46713"
     inkscape:document-units="mm"
     inkscape:current-layer="layer1"
     inkscape:document-rotation="0"
     showgrid="false"
     inkscape:window-width="1258"
     inkscape:window-height="1040"
     inkscape:window-x="1836"
     inkscape:window-y="0"
     inkscape:window-maximized="0" />
  <metadata
     id="metadata1188">
    <rdf:RDF>
      <cc:Work
         rdf:about="">
        <dc:format>image/svg+xml</dc:format>
        <dc:type
           rdf:resource="http://purl.org/dc/dcmitype/StillImage" />
        <dc:title></dc:title>
      </cc:Work>
    </rdf:RDF>
  </metadata>
  <g
     inkscape:label="Capa 1"
     inkscape:groupmode="layer"
     id="layer1"
     transform="translate(-4.3120781,-94.332655)">
    <path
       d="M 25.46802,101.94867 H 9.8131537 c -0.4677833,0 -0.8466667,-0.37888 -0.8466667,-0.84667 0,-0.46743 0.3788834,-0.84666 0.8466667,-0.84666 H 25.46802 Z"
       fill="#ffffff"
       id="path1088"
       style="stroke-width:0.352778" />
    <path
       d="M 25.46802,106.01094 H 9.8131537 c -0.4677833,0 -0.8466667,-0.37888 -0.8466667,-0.84667 0,-0.46778 0.3788834,-0.84666 0.8466667,-0.84666 H 25.46802 Z"
       fill="#ffffff"
       id="path1090"
       style="stroke-width:0.352778" />
    <path
       d="M 25.46802,110.07289 H 9.8131537 c -0.4677833,0 -0.8466667,-0.37924 -0.8466667,-0.84667 0,-0.46778 0.3788834,-0.84666 0.8466667,-0.84666 H 25.46802 Z"
       fill="#ffffff"
       id="path1092"
       style="stroke-width:0.352778" />
    <path
       d="M 17.006151,114.13467 H 9.8130123 c -0.4677834,-0.001 -0.8456083,-0.381 -0.84455,-0.84843 0.00106,-0.46637 0.3785305,-0.84384 0.84455,-0.8449 h 7.1931387 z"
       fill="#ffffff"
       id="path1094"
       style="stroke-width:0.352778" />
    <path
       d="m 28.768397,122.59721 v 2.11667 H 6.0050586 V 96.025283 H 28.768397 V 119.29697 H 30.46173 V 94.332655 H 4.3120781 V 126.40545 H 30.461025 v -3.80824 z"
       fill="#ffffff"
       id="path1096"
       style="stroke-width:0.352778" />
  </g>
</svg>
