<?xml version="1.0" encoding="UTF-8" standalone="no"?>
<svg
   xmlns:dc="http://purl.org/dc/elements/1.1/"
   xmlns:cc="http://creativecommons.org/ns#"
   xmlns:rdf="http://www.w3.org/1999/02/22-rdf-syntax-ns#"
   xmlns:svg="http://www.w3.org/2000/svg"
   xmlns="http://www.w3.org/2000/svg"
   xmlns:sodipodi="http://sodipodi.sourceforge.net/DTD/sodipodi-0.dtd"
   xmlns:inkscape="http://www.inkscape.org/namespaces/inkscape"
   width="27.041004mm"
   height="26.648832mm"
   viewBox="0 0 27.041004 26.648832"
   version="1.1"
   id="svg1183"
   inkscape:version="1.0.2-2 (e86c870879, 2021-01-15)"
   sodipodi:docname="ok.svg">
  <defs
     id="defs1177" />
  <sodipodi:namedview
     id="base"
     pagecolor="#ffffff"
     bordercolor="#666666"
     borderopacity="1.0"
     inkscape:pageopacity="0.0"
     inkscape:pageshadow="2"
     inkscape:zoom="0.35"
     inkscape:cx="213.95827"
     inkscape:cy="241.78854"
     inkscape:document-units="mm"
     inkscape:current-layer="layer1"
     inkscape:document-rotation="0"
     showgrid="false"
     inkscape:window-width="1258"
     inkscape:window-height="1040"
     inkscape:window-x="1862"
     inkscape:window-y="0"
     inkscape:window-maximized="0" />
  <metadata
     id="metadata1180">
    <rdf:RDF>
      <cc:Work
         rdf:about="">
        <dc:format>image/svg+xml</dc:format>
        <dc:type
           rdf:resource="http://purl.org/dc/dcmitype/StillImage" />
        <dc:title></dc:title>
      </cc:Work>
    </rdf:RDF>
  </metadata>
  <g
     inkscape:label="Capa 1"
     inkscape:groupmode="layer"
     id="layer1"
     transform="translate(-49.223541,-84.193448)">
    <path
       d="m 62.510094,106.43397 -1.215672,1.92687 c -0.303036,0.4819 -0.82797,0.77858 -1.397,0.78917 h -0.03528 c -0.557036,0 -1.078442,-0.27411 -1.394178,-0.73308 L 51.232141,97.904156 c -0.225425,-0.319264 -0.336902,-0.705908 -0.31503,-1.096786 0.0575,-0.889353 0.794808,-1.582208 1.685925,-1.584325 0.104422,0 0.208492,0.0099 0.310797,0.02858 0.442031,0.08043 0.833614,0.334434 1.086908,0.705556 l 5.800725,8.425749 11.265606,-17.855499 2.862791,1.806222 -9.341908,14.809617 c -0.236008,0.40393 -0.100189,0.92251 0.303742,1.15817 0.384527,0.22437 0.876652,0.11289 1.127125,-0.25506 L 76.264546,87.805893 70.538963,84.193448 59.740083,101.30881 55.395625,94.996915 c -0.59302,-0.865011 -1.554692,-1.405114 -2.602089,-1.461559 -0.602192,-0.03598 -1.202972,0.09243 -1.737783,0.371475 -1.661584,0.859014 -2.312106,2.90195 -1.453445,4.563534 0.06526,0.126294 0.138289,0.248002 0.218722,0.365125 l 7.252406,10.541 c 0.631472,0.91722 1.673578,1.46544 2.786944,1.46579 h 0.07056 c 1.137355,-0.0222 2.187222,-0.61524 2.792941,-1.57797 l 1.213556,-1.92335 z"
       fill="#ffffff"
       id="path1110"
       style="stroke-width:0.352778" />
  </g>
</svg>
