<?xml version="1.0" encoding="UTF-8" standalone="no"?>
<svg
   xmlns:dc="http://purl.org/dc/elements/1.1/"
   xmlns:cc="http://creativecommons.org/ns#"
   xmlns:rdf="http://www.w3.org/1999/02/22-rdf-syntax-ns#"
   xmlns:svg="http://www.w3.org/2000/svg"
   xmlns="http://www.w3.org/2000/svg"
   xmlns:sodipodi="http://sodipodi.sourceforge.net/DTD/sodipodi-0.dtd"
   xmlns:inkscape="http://www.inkscape.org/namespaces/inkscape"
   width="32.145111mm"
   height="32.299011mm"
   viewBox="0 0 32.145111 32.299011"
   version="1.1"
   id="svg3598"
   inkscape:version="1.0.2-2 (e86c870879, 2021-01-15)"
   sodipodi:docname="users-import.svg">
  <defs
     id="defs3592">
    <clipPath
       id="cp31">
      <path
         transform="matrix(1,0,0,-1,0,768)"
         d="m 257.5,228.5 h 120 v 120 h -120 z"
         id="path3222" />
    </clipPath>
  </defs>
  <sodipodi:namedview
     id="base"
     pagecolor="#ffffff"
     bordercolor="#666666"
     borderopacity="1.0"
     inkscape:pageopacity="0.0"
     inkscape:pageshadow="2"
     inkscape:zoom="0.35"
     inkscape:cx="1183.6038"
     inkscape:cy="975.32321"
     inkscape:document-units="mm"
     inkscape:current-layer="layer1"
     inkscape:document-rotation="0"
     showgrid="false"
     inkscape:window-width="1216"
     inkscape:window-height="1043"
     inkscape:window-x="1810"
     inkscape:window-y="0"
     inkscape:window-maximized="0" />
  <metadata
     id="metadata3595">
    <rdf:RDF>
      <cc:Work
         rdf:about="">
        <dc:format>image/svg+xml</dc:format>
        <dc:type
           rdf:resource="http://purl.org/dc/dcmitype/StillImage" />
        <dc:title></dc:title>
      </cc:Work>
    </rdf:RDF>
  </metadata>
  <g
     inkscape:label="Capa 1"
     inkscape:groupmode="layer"
     id="layer1"
     transform="translate(207.32851,109.8876)">
    <g
       clip-path="url(#cp31)"
       id="g3227"
       transform="matrix(0.35277777,0,0,0.35277777,-304.09037,-261.70337)">
      <path
         transform="matrix(1,0,0,-1,348.8896,463.744)"
         d="m 0,0 c -0.006,0.001 -0.01,0.008 -0.009,0.014 10e-4,0.003 0.002,0.005 0.004,0.007 3.174,2.821 4.986,6.867 4.98,11.113 v 7.1 c 0.134,8.24 -6.436,15.03 -14.676,15.164 -8.24,0.136 -15.029,-6.435 -15.164,-14.675 -0.002,-0.083 -0.003,-0.167 -0.002,-0.25 v -7.335 c -0.008,-4.246 1.805,-8.292 4.978,-11.113 0.005,-0.004 0.006,-0.012 10e-4,-0.017 -0.002,-0.002 -0.004,-0.004 -0.007,-0.004 -4.961,-1.122 -9.351,-3.999 -12.362,-8.1 -0.004,-0.004 -0.012,-0.004 -0.015,0 -1.845,1.075 -3.843,1.862 -5.925,2.334 -0.007,10e-4 -0.011,0.008 -0.01,0.014 10e-4,0.003 0.002,0.005 0.004,0.007 3.175,2.821 4.987,6.866 4.98,11.113 v 7.1 c 0.135,8.24 -6.435,15.029 -14.675,15.164 -8.241,0.135 -15.03,-6.436 -15.165,-14.676 -10e-4,-0.084 -10e-4,-0.167 -10e-4,-0.25 V 5.375 c -0.008,-4.246 1.805,-8.292 4.978,-11.113 0.005,-0.004 0.006,-0.012 0.002,-0.017 -0.002,-0.002 -0.005,-0.004 -0.008,-0.004 -9.66,-2.191 -16.516,-10.779 -16.512,-20.685 v -19.2 c 0.007,-5.394 3.465,-10.178 8.585,-11.876 1.138,-0.358 2.351,0.274 2.709,1.412 0.347,1.1 -0.233,2.278 -1.316,2.676 -3.372,1.099 -5.655,4.241 -5.658,7.788 v 19.179 c 0,9.334 7.566,16.9 16.899,16.9 h 2.284 c 0.796,10e-4 1.442,0.646 1.443,1.442 v 1.816 c -0.004,0.663 -0.457,1.24 -1.101,1.4 -4.699,1.192 -7.989,5.424 -7.986,10.272 v 7.169 c -0.022,5.827 4.61,10.606 10.435,10.767 5.861,0.084 10.68,-4.599 10.764,-10.46 10e-4,-0.047 10e-4,-0.093 10e-4,-0.14 V 5.366 c -0.008,-4.788 -3.218,-8.979 -7.839,-10.233 -0.733,-0.195 -1.246,-0.856 -1.251,-1.615 v -1.4 c 0,-0.929 0.753,-1.681 1.681,-1.681 h 2.046 c 9.333,0 16.899,-7.566 16.899,-16.9 v -19.176 c 0,-4.529 -3.671,-8.2 -8.2,-8.2 h -11.144 v 23.35 l 11.015,-11.255 2.91,2.91 -16.058,16.3 -15.946,-16.186 2.911,-2.91 11.052,11.293 v -23.5 h -0.008 c -0.006,0 -0.011,-0.005 -0.011,-0.012 v -4.295 c 0,-0.007 0.005,-0.012 0.011,-0.012 h 15.283 c 4.268,-0.023 8.247,2.156 10.528,5.763 1.323,1.999 2.014,4.35 1.981,6.746 v 19.2 c -0.002,6.036 -2.579,11.785 -7.082,15.805 -0.004,0.004 -0.004,0.012 0,0.016 3.19,4.296 8.222,6.831 13.573,6.837 h 2.299 c 0.796,0 1.442,0.646 1.442,1.442 v 1.808 c -0.003,0.663 -0.456,1.24 -1.1,1.4 -4.703,1.19 -7.996,5.423 -7.992,10.274 v 7.167 c -0.021,5.828 4.611,10.608 10.438,10.768 5.861,0.084 10.681,-4.599 10.765,-10.46 0.001,-0.047 0.001,-0.093 0.001,-0.14 V 11.135 C 0.652,6.346 -2.559,2.155 -7.181,0.901 -7.914,0.706 -8.427,0.045 -8.432,-0.714 v -1.4 c 0,-0.928 0.753,-1.681 1.681,-1.681 h 2.045 c 9.334,0 16.9,-7.566 16.9,-16.9 v -19.174 c 0,-4.529 -3.671,-8.2 -8.2,-8.2 h -15.438 v -4.32 H 3.993 c 6.916,0 12.523,5.606 12.523,12.522 v 19.178 C 16.52,-10.783 9.664,-2.194 0.003,-0.004"
         fill="#ffffff"
         id="path3225" />
    </g>
  </g>
</svg>
