<?xml version="1.0" encoding="UTF-8" standalone="no"?>
<svg
   xmlns:dc="http://purl.org/dc/elements/1.1/"
   xmlns:cc="http://creativecommons.org/ns#"
   xmlns:rdf="http://www.w3.org/1999/02/22-rdf-syntax-ns#"
   xmlns:svg="http://www.w3.org/2000/svg"
   xmlns="http://www.w3.org/2000/svg"
   xmlns:sodipodi="http://sodipodi.sourceforge.net/DTD/sodipodi-0.dtd"
   xmlns:inkscape="http://www.inkscape.org/namespaces/inkscape"
   width="32.23119mm"
   height="32.263222mm"
   viewBox="0 0 32.23119 32.263222"
   version="1.1"
   id="svg3567"
   inkscape:version="1.0.2-2 (e86c870879, 2021-01-15)"
   sodipodi:docname="users-export.svg">
  <defs
     id="defs3561" />
  <sodipodi:namedview
     id="base"
     pagecolor="#ffffff"
     bordercolor="#666666"
     borderopacity="1.0"
     inkscape:pageopacity="0.0"
     inkscape:pageshadow="2"
     inkscape:zoom="0.35"
     inkscape:cx="609.48052"
     inkscape:cy="178.11325"
     inkscape:document-units="mm"
     inkscape:current-layer="layer1"
     inkscape:document-rotation="0"
     showgrid="false"
     inkscape:window-width="1216"
     inkscape:window-height="1043"
     inkscape:window-x="1784"
     inkscape:window-y="0"
     inkscape:window-maximized="0" />
  <metadata
     id="metadata3564">
    <rdf:RDF>
      <cc:Work
         rdf:about="">
        <dc:format>image/svg+xml</dc:format>
        <dc:type
           rdf:resource="http://purl.org/dc/dcmitype/StillImage" />
        <dc:title></dc:title>
      </cc:Work>
    </rdf:RDF>
  </metadata>
  <g
     inkscape:label="Capa 1"
     inkscape:groupmode="layer"
     id="layer1"
     transform="translate(55.425054,-101.04087)">
    <path
       d="m -29.106485,112.78857 c -0.0025,-3.5e-4 -0.0039,-0.003 -0.0035,-0.005 3.53e-4,-7.1e-4 7.06e-4,-0.002 0.0018,-0.002 1.119364,-0.99518 1.758597,-2.42252 1.756481,-3.92042 v -2.50472 c 0.02858,-2.90724 -2.305403,-5.28708 -5.212645,-5.3153 -2.907241,-0.0286 -5.286727,2.30505 -5.315302,5.21229 v 0.019 2.58762 c -0.0028,1.4979 0.637116,2.92524 1.756127,3.92042 0.0021,10e-4 0.0021,0.004 7.06e-4,0.006 -7.06e-4,7.1e-4 -0.0018,10e-4 -0.0025,10e-4 -1.750483,0.39582 -3.299177,1.41076 -4.361038,2.8575 -0.0018,0.001 -0.0042,0.001 -0.0056,0 -0.650875,-0.37923 -1.355725,-0.65687 -2.090208,-0.82338 -0.0025,-3.5e-4 -0.0039,-0.002 -0.0035,-0.005 0,-7.1e-4 7.06e-4,-0.002 0.0014,-0.002 1.119717,-0.99519 1.75895,-2.42252 1.756481,-3.92042 v -2.50472 c 0.02858,-2.90724 -2.30505,-5.28708 -5.212292,-5.3153 -2.906889,-0.0286 -5.286727,2.3054 -5.31495,5.21229 -3.52e-4,0.006 -3.52e-4,0.0127 -3.52e-4,0.0191 v 2.58762 c -0.0032,1.49896 0.636411,2.9277 1.757538,3.9236 0.0018,0.001 0.0018,0.004 3.53e-4,0.006 -7.05e-4,7.1e-4 -0.0018,0.001 -0.0025,0.001 -3.408186,0.77259 -5.826478,3.8026 -5.825067,7.29721 v 6.77334 c 0.0025,1.90253 1.222375,3.59022 3.028245,4.18888 0.401461,0.12629 0.82938,-0.0967 0.955675,-0.49812 0.122413,-0.38806 -0.08185,-0.80398 -0.463903,-0.94404 -1.189567,-0.3877 -1.994958,-1.49613 -1.99637,-2.74708 v -6.7691 c 0,-3.29282 2.669117,-5.96194 5.961592,-5.96194 h 0.805744 c 0.281164,3.5e-4 0.509411,-0.22684 0.510117,-0.50765 v -0.002 -0.63959 c -0.0014,-0.23389 -0.160867,-0.43744 -0.388055,-0.49389 -1.658762,-0.42016 -2.820106,-1.91311 -2.818695,-3.62408 v -2.52871 c -0.0078,-2.05564 1.626306,-3.74227 3.681236,-3.79871 2.067983,-0.03 3.768372,1.62207 3.798358,3.69005 0,0.0166 3.53e-4,0.0328 3.53e-4,0.0494 v 2.58762 c -0.0025,1.6891 -1.135239,3.16795 -2.765425,3.61033 -0.258939,0.0688 -0.439561,0.30233 -0.441325,0.57009 v 0.49389 c 3.53e-4,0.32667 0.264584,0.59161 0.591609,0.59231 h 0.72143 c 3.292475,0 5.961592,2.66912 5.961592,5.96195 v 6.76416 c 0,1.59773 -1.295048,2.89278 -2.892425,2.89278 h -5.385506 c -0.0018,0 -0.0039,0.002 -0.0039,0.004 v 1.51518 c 0,0.002 0.0021,0.004 0.0039,0.004 h 5.39115 c 1.505656,0.008 2.909711,-0.76058 3.714397,-2.03305 0.466373,-0.70521 0.710142,-1.53459 0.6985,-2.37984 v -3.54154 h 10.865556 l -4.134203,3.88056 0.987425,0.98777 5.844116,-5.58976 -5.973938,-6.31155 -0.988131,0.98778 4.313767,4.65208 h -10.914592 v -1.83444 c -7.05e-4,-2.12972 -0.909814,-4.15749 -2.498372,-5.57566 -0.0014,-0.002 -0.0014,-0.004 0,-0.006 1.125361,-1.51554 2.900892,-2.40983 4.788606,-2.41194 h 0.811036 c 0.281164,-3.6e-4 0.508705,-0.2279 0.509058,-0.50871 v -0.6417 c -0.0014,-0.23425 -0.161219,-0.43745 -0.388408,-0.49389 -1.657703,-0.42051 -2.818342,-1.91347 -2.816931,-3.62373 v -2.52907 c -0.0085,-2.05458 1.623836,-3.74085 3.678061,-3.79942 2.067631,-0.0296 3.767667,1.62243 3.7973,3.69041 3.53e-4,0.0162 3.53e-4,0.0325 3.53e-4,0.049 v 2.58762 c -0.0025,1.6891 -1.134886,3.1676 -2.765425,3.60998 -0.258586,0.0688 -0.439561,0.30233 -0.441325,0.57009 v 0.49389 c 0,0.32737 0.265642,0.59302 0.593372,0.59302 h 0.721431 c 3.292475,0 5.961591,2.66911 5.961591,5.96194 v 0.70732 h 1.524353 v -0.71049 c 0.0018,-3.49462 -2.417233,-6.52463 -5.825067,-7.29721"
       fill="#ffffff"
       id="path3218"
       style="stroke-width:0.352778" />
  </g>
</svg>
