<?xml version="1.0" standalone="no"?>
<!DOCTYPE svg PUBLIC "-//W3C//DTD SVG 20010904//EN"
 "http://www.w3.org/TR/2001/REC-SVG-20010904/DTD/svg10.dtd">
<svg version="1.0" xmlns="http://www.w3.org/2000/svg"
 width="700.000000pt" height="700.000000pt" viewBox="0 0 700.000000 700.000000"
 preserveAspectRatio="xMidYMid meet">
<metadata>
Created by potrace 1.11, written by Peter Selinger 2001-2013
</metadata>
<g transform="translate(0.000000,700.000000) scale(0.100000,-0.100000)"
fill="#000000" stroke="none">
<path d="M1640 6994 c-14 -2 -59 -9 -100 -15 -636 -90 -1200 -545 -1423 -1149
-31 -84 -72 -224 -83 -287 -11 -61 -14 -82 -21 -133 -11 -74 -10 -3748 0
-3825 34 -249 116 -490 239 -694 291 -487 766 -800 1333 -878 77 -10 3752 -11
3825 0 219 32 377 78 555 162 515 244 894 730 1000 1280 3 17 8 41 10 55 3 14
9 57 13 95 9 92 9 3699 0 3793 -25 240 -128 536 -261 749 -241 388 -639 681
-1077 793 -232 60 -158 58 -2155 57 -1007 0 -1841 -1 -1855 -3z"/>
</g>
</svg>
