<?xml version="1.0" encoding="UTF-8" standalone="no"?>
<svg
   xmlns:dc="http://purl.org/dc/elements/1.1/"
   xmlns:cc="http://creativecommons.org/ns#"
   xmlns:rdf="http://www.w3.org/1999/02/22-rdf-syntax-ns#"
   xmlns:svg="http://www.w3.org/2000/svg"
   xmlns="http://www.w3.org/2000/svg"
   xmlns:sodipodi="http://sodipodi.sourceforge.net/DTD/sodipodi-0.dtd"
   xmlns:inkscape="http://www.inkscape.org/namespaces/inkscape"
   width="31.233179mm"
   height="32.349014mm"
   viewBox="0 0 31.233179 32.349014"
   version="1.1"
   id="svg724"
   inkscape:version="1.0.2-2 (e86c870879, 2021-01-15)"
   sodipodi:docname="calendar.svg">
  <defs
     id="defs718">
    <clipPath
       id="cp29">
      <path
         transform="matrix(1,0,0,-1,0,768)"
         d="m 257.5,393.5 h 120 v 120.001 h -120 z"
         id="path89" />
    </clipPath>
  </defs>
  <sodipodi:namedview
     id="base"
     pagecolor="#ffffff"
     bordercolor="#666666"
     borderopacity="1.0"
     inkscape:pageopacity="0.0"
     inkscape:pageshadow="2"
     inkscape:zoom="0.35"
     inkscape:cx="541.88048"
     inkscape:cy="512.56057"
     inkscape:document-units="mm"
     inkscape:current-layer="layer1"
     inkscape:document-rotation="0"
     showgrid="false"
     inkscape:window-width="1258"
     inkscape:window-height="1040"
     inkscape:window-x="1836"
     inkscape:window-y="0"
     inkscape:window-maximized="0" />
  <metadata
     id="metadata721">
    <rdf:RDF>
      <cc:Work
         rdf:about="">
        <dc:format>image/svg+xml</dc:format>
        <dc:type
           rdf:resource="http://purl.org/dc/dcmitype/StillImage" />
        <dc:title></dc:title>
      </cc:Work>
    </rdf:RDF>
  </metadata>
  <g
     inkscape:label="Capa 1"
     inkscape:groupmode="layer"
     id="layer1"
     transform="translate(37.539211,-12.551683)">
    <g
       clip-path="url(#cp29)"
       id="g96"
       transform="matrix(0.35277777,0,0,0.35277777,-134.03268,-82.644305)">
      <path
         transform="matrix(1,0,0,-1,321.9756,306.2718)"
         d="m 0,0 v 0.14 c 5.601,2.031 8.4,6.022 8.4,10.714 0,5.532 -4.06,10.854 -13.024,10.854 -4.223,0.02 -8.359,-1.197 -11.899,-3.5 l 1.61,-4.481 c 2.675,1.87 5.838,2.917 9.101,3.011 5.671,0 7.982,-3.221 7.982,-6.863 0,-5.392 -5.672,-7.7 -10.153,-7.7 h -3.432 v -4.622 h 3.432 c 5.952,0 11.693,-2.731 11.763,-9.1 0.071,-3.781 -2.381,-8.823 -10.294,-8.823 -3.552,0.071 -7.026,1.06 -10.084,2.871 l -1.68,-4.762 c 3.596,-2.07 7.684,-3.134 11.834,-3.081 10.923,0 16.599,6.372 16.599,13.655 0,6.372 -4.551,10.574 -10.154,11.694"
         fill="#ffffff"
         id="path92" />
      <path
         transform="matrix(1,0,0,-1,357.8428,347.9989)"
         d="m 0,0 c -0.006,-5.151 -4.181,-9.326 -9.332,-9.332 h -61.439 c -5.151,0.006 -9.326,4.181 -9.332,9.332 v 4.144 h 80.1 z m -9.333,78.152 h -48 c -1.164,0 -2.108,-0.944 -2.108,-2.109 0,-1.164 0.944,-2.108 2.108,-2.108 h 48 c 5.154,0 9.332,-4.178 9.332,-9.332 V 8.36 h -80.1 v 56.243 c 0,5.154 4.178,9.332 9.332,9.332 h 3.528 v 4.217 h -3.53 c -7.482,-0.001 -13.547,-6.067 -13.547,-13.549 v -64.6 c 0,-7.483 6.065,-13.549 13.548,-13.549 h 61.438 c 7.483,0 13.549,6.066 13.549,13.549 v 64.6 C 4.218,72.085 -1.848,78.151 -9.33,78.152 h -0.002"
         fill="#ffffff"
         id="path94" />
    </g>
  </g>
</svg>
