<?xml version="1.0" encoding="UTF-8" standalone="no"?>
<svg
   xmlns:dc="http://purl.org/dc/elements/1.1/"
   xmlns:cc="http://creativecommons.org/ns#"
   xmlns:rdf="http://www.w3.org/1999/02/22-rdf-syntax-ns#"
   xmlns:svg="http://www.w3.org/2000/svg"
   xmlns="http://www.w3.org/2000/svg"
   xmlns:sodipodi="http://sodipodi.sourceforge.net/DTD/sodipodi-0.dtd"
   xmlns:inkscape="http://www.inkscape.org/namespaces/inkscape"
   width="29.299957mm"
   height="29.00577mm"
   viewBox="0 0 29.299957 29.00577"
   version="1.1"
   id="svg524"
   inkscape:version="1.0.2-2 (e86c870879, 2021-01-15)"
   sodipodi:docname="configuration.svg">
  <defs
     id="defs518">
    <clipPath
       id="cp27">
      <path
         transform="matrix(1,0,0,-1,0,768)"
         d="m 257.635,567.114 h 120.25 V 687.5 h -120.25 z"
         id="path73" />
    </clipPath>
  </defs>
  <sodipodi:namedview
     id="base"
     pagecolor="#ffffff"
     bordercolor="#666666"
     borderopacity="1.0"
     inkscape:pageopacity="0.0"
     inkscape:pageshadow="2"
     inkscape:zoom="0.35"
     inkscape:cx="623.94141"
     inkscape:cy="631.95691"
     inkscape:document-units="mm"
     inkscape:current-layer="layer1"
     inkscape:document-rotation="0"
     showgrid="false"
     inkscape:window-width="1258"
     inkscape:window-height="1040"
     inkscape:window-x="1706"
     inkscape:window-y="0"
     inkscape:window-maximized="0" />
  <metadata
     id="metadata521">
    <rdf:RDF>
      <cc:Work
         rdf:about="">
        <dc:format>image/svg+xml</dc:format>
        <dc:type
           rdf:resource="http://purl.org/dc/dcmitype/StillImage" />
        <dc:title></dc:title>
      </cc:Work>
    </rdf:RDF>
  </metadata>
  <g
     inkscape:label="Capa 1"
     inkscape:groupmode="layer"
     id="layer1"
     transform="translate(59.251166,19.038599)">
    <g
       clip-path="url(#cp27)"
       id="g80"
       transform="matrix(0.35277777,0,0,0.35277777,-156.60887,-54.132949)">
      <path
         transform="matrix(1,0,0,-1,346.3486,161.40509)"
         d="M 0,0 0.032,-0.033 C 0.791,-0.79 0.793,-2.019 0.035,-2.778 l -0.003,-0.003 -5.05,-5 c -0.772,-0.753 -2.004,-0.753 -2.777,0 l -0.03,0.031 c -1.305,1.253 -3.276,1.504 -4.852,0.617 -2.405,-1.367 -4.975,-2.422 -7.647,-3.139 -1.757,-0.468 -2.982,-2.056 -2.988,-3.874 -0.006,-1.078 -0.884,-1.947 -1.962,-1.943 h -7.144 c -1.078,-0.004 -1.956,0.865 -1.963,1.943 -0.006,1.818 -1.23,3.406 -2.986,3.874 -2.673,0.717 -5.243,1.772 -7.649,3.139 -1.589,0.899 -3.583,0.634 -4.882,-0.648 -0.773,-0.753 -2.004,-0.753 -2.777,0 l -5.051,5 c -0.759,0.757 -0.762,1.986 -0.005,2.745 0.002,0.002 0.003,0.004 0.005,0.006 1.291,1.275 1.56,3.26 0.654,4.832 -1.38,2.377 -2.446,4.922 -3.171,7.572 -0.492,1.753 -2.092,2.962 -3.912,2.957 -1.078,-0.004 -1.956,0.865 -1.963,1.943 v 7.072 c 0.006,1.078 0.884,1.948 1.963,1.944 1.82,-0.005 3.42,1.204 3.912,2.957 0.725,2.65 1.791,5.195 3.171,7.572 0.906,1.574 0.636,3.56 -0.657,4.835 -0.758,0.757 -0.76,1.986 -0.002,2.745 0.001,10e-4 0.002,0.002 0.002,0.003 l 5.051,5 c 0.773,0.754 2.006,0.754 2.779,0 1.299,-1.281 3.292,-1.545 4.88,-0.647 2.406,1.368 4.975,2.422 7.647,3.139 1.757,0.468 2.981,2.056 2.987,3.874 0.006,1.079 0.885,1.949 1.963,1.944 h 7.148 c 1.078,0.004 1.956,-0.865 1.962,-1.944 0.006,-1.817 1.23,-3.405 2.987,-3.874 2.672,-0.717 5.242,-1.771 7.647,-3.139 1.576,-0.887 3.548,-0.636 4.853,0.618 l 0.031,0.031 c 0.773,0.754 2.004,0.754 2.776,0 l 5.05,-5 C 0.792,43.647 0.794,42.418 0.037,41.659 0.036,41.657 0.034,41.656 0.032,41.654 l -0.03,-0.03 c -1.264,-1.277 -1.519,-3.242 -0.623,-4.8 1.38,-2.377 2.445,-4.922 3.172,-7.572 C 3.042,27.5 4.642,26.29 6.462,26.295 7.541,26.299 8.419,25.429 8.426,24.351 V 17.279 C 8.418,16.201 7.54,15.332 6.462,15.336 4.643,15.341 3.042,14.132 2.551,12.379 1.824,9.729 0.759,7.184 -0.621,4.807 -1.515,3.249 -1.26,1.286 0.002,0.007 M 6.614,30.5 c -0.805,2.893 -1.97,5.673 -3.466,8.277 2.321,2.414 2.273,6.244 -0.106,8.6 l -5.05,5 c -2.401,2.356 -6.233,2.4 -8.688,0.1 -2.635,1.483 -5.443,2.636 -8.36,3.432 -0.099,3.36 -2.858,6.028 -6.218,6.016 h -7.144 c -3.356,0.012 -6.113,-2.65 -6.219,-6.006 -2.917,-0.796 -5.724,-1.949 -8.359,-3.432 -2.455,2.301 -6.287,2.256 -8.689,-0.1 l -5.05,-5 c -2.38,-2.356 -2.427,-6.186 -0.107,-8.6 -1.495,-2.604 -2.66,-5.384 -3.466,-8.277 -3.355,-0.073 -6.044,-2.802 -6.066,-6.158 V 17.28 c 0.022,-3.356 2.711,-6.084 6.066,-6.157 0.806,-2.893 1.971,-5.673 3.466,-8.277 -2.32,-2.414 -2.272,-6.243 0.107,-8.6 l 5.05,-5 c 2.401,-2.358 6.233,-2.404 8.689,-0.105 2.636,-1.483 5.442,-2.635 8.359,-3.431 0.106,-3.356 2.863,-6.018 6.219,-6.006 h 7.144 c 3.357,-0.012 6.113,2.65 6.218,6.006 2.917,0.796 5.725,1.948 8.36,3.431 2.455,-2.3 6.287,-2.256 8.688,0.1 l 5.05,5 c 2.379,2.357 2.427,6.186 0.106,8.6 1.497,2.604 2.661,5.385 3.466,8.277 3.356,0.072 6.044,2.801 6.067,6.157 v 7.072 c -0.023,3.356 -2.711,6.086 -6.067,6.158"
         fill="#ffffff"
         id="path76" />
      <path
         transform="matrix(1,0,0,-1,298.1436,152.30689)"
         d="M 0,0 C -2.186,3.522 -3.341,7.586 -3.333,11.732 -3.409,24.23 6.66,34.424 19.158,34.501 31.655,34.578 41.85,24.508 41.927,12.01 42.004,-0.487 31.935,-10.682 19.437,-10.758 14.606,-10.788 9.894,-9.271 5.987,-6.431 L 2.541,-9.843 c 11.938,-9.104 28.996,-6.806 38.101,5.133 9.103,11.938 6.805,28.996 -5.133,38.099 -11.939,9.104 -28.996,6.806 -38.1,-5.132 -3.449,-4.523 -5.392,-10.014 -5.556,-15.7 -0.171,-5.302 1.23,-10.536 4.027,-15.044 0.715,-1.133 2.213,-1.471 3.346,-0.756 0.149,0.094 0.287,0.203 0.412,0.327 0.786,0.769 0.936,1.979 0.362,2.917"
         fill="#ffffff"
         id="path78" />
    </g>
  </g>
</svg>
