<?xml version="1.0" encoding="UTF-8" standalone="no"?>
<svg
   xmlns:dc="http://purl.org/dc/elements/1.1/"
   xmlns:cc="http://creativecommons.org/ns#"
   xmlns:rdf="http://www.w3.org/1999/02/22-rdf-syntax-ns#"
   xmlns:svg="http://www.w3.org/2000/svg"
   xmlns="http://www.w3.org/2000/svg"
   xmlns:sodipodi="http://sodipodi.sourceforge.net/DTD/sodipodi-0.dtd"
   xmlns:inkscape="http://www.inkscape.org/namespaces/inkscape"
   width="32.596664mm"
   height="32.364586mm"
   viewBox="0 0 32.596664 32.364586"
   version="1.1"
   id="svg565"
   inkscape:version="1.0.2-2 (e86c870879, 2021-01-15)"
   sodipodi:docname="workers.svg">
  <defs
     id="defs559">
    <clipPath
       id="cp21">
      <path
         transform="matrix(1,0,0,-1,0,768)"
         d="m 436.501,567.5 h 120 v 120 h -120 z"
         id="path9" />
    </clipPath>
  </defs>
  <sodipodi:namedview
     id="base"
     pagecolor="#ffffff"
     bordercolor="#666666"
     borderopacity="1.0"
     inkscape:pageopacity="0.0"
     inkscape:pageshadow="2"
     inkscape:zoom="0.35"
     inkscape:cx="861.60001"
     inkscape:cy="598.30428"
     inkscape:document-units="mm"
     inkscape:current-layer="layer1"
     inkscape:document-rotation="0"
     showgrid="false"
     inkscape:window-width="1258"
     inkscape:window-height="1040"
     inkscape:window-x="1732"
     inkscape:window-y="0"
     inkscape:window-maximized="0" />
  <metadata
     id="metadata562">
    <rdf:RDF>
      <cc:Work
         rdf:about="">
        <dc:format>image/svg+xml</dc:format>
        <dc:type
           rdf:resource="http://purl.org/dc/dcmitype/StillImage" />
        <dc:title></dc:title>
      </cc:Work>
    </rdf:RDF>
  </metadata>
  <g
     inkscape:label="Capa 1"
     inkscape:groupmode="layer"
     id="layer1"
     transform="translate(122.13167,10.134675)">
    <g
       clip-path="url(#cp21)"
       id="g14"
       transform="matrix(0.35277777,0,0,0.35277777,-281.66201,-42.510145)">
      <path
         transform="matrix(1,0,0,-1,505.874,170.97199)"
         d="m 0,0 v 19.256 c -0.01,6.07 -2.626,11.843 -7.183,15.852 -0.004,0.005 -0.004,0.012 0,0.017 3.257,4.32 8.355,6.859 13.765,6.857 H 8.91 c 0.804,-0.004 1.458,0.643 1.463,1.447 v 1.819 c -0.006,0.67 -0.468,1.25 -1.12,1.406 -4.744,1.167 -8.084,5.414 -8.1,10.3 v 7.191 c -0.016,5.949 4.792,10.784 10.742,10.801 2.82,0.008 5.531,-1.092 7.55,-3.061 2.056,-1.983 3.215,-4.717 3.211,-7.573 V 56.955 C 22.631,52.13 19.372,47.922 14.706,46.691 13.966,46.5 13.445,45.836 13.437,45.071 v -1.4 c 0.007,-0.933 0.766,-1.686 1.7,-1.686 h 2.073 c 9.414,0.052 17.088,-7.538 17.141,-16.952 V 5.802 C 34.325,1.233 30.602,-2.45 26.033,-2.425 H 10.381 v -4.332 h 15.657 c 6.976,-0.039 12.661,5.584 12.7,12.56 v 19.239 c -0.035,9.984 -6.995,18.606 -16.747,20.746 -0.007,0.002 -0.011,0.008 -0.01,0.014 10e-4,0.003 0.003,0.005 0.005,0.007 3.211,2.814 5.052,6.877 5.05,11.146 v 7.118 C 27.032,72.431 20.254,79.203 11.896,79.199 3.637,79.195 -3.094,72.57 -3.228,64.312 V 56.955 C -3.23,52.686 -1.39,48.623 1.822,45.809 1.827,45.805 1.828,45.797 1.823,45.792 1.822,45.79 1.819,45.789 1.817,45.788 -3.201,44.672 -7.65,41.789 -10.72,37.665 c -0.005,-0.004 -0.011,-0.004 -0.016,0 -1.873,1.078 -3.9,1.867 -6.009,2.34 -0.007,10e-4 -0.011,0.008 -0.009,0.015 0,0.002 0.002,0.004 0.004,0.006 3.211,2.814 5.052,6.876 5.05,11.146 v 7.116 c -0.053,8.358 -6.871,15.09 -15.229,15.037 -8.19,-0.053 -14.852,-6.611 -15.033,-14.799 v -7.357 c -0.002,-4.27 1.839,-8.333 5.05,-11.146 0.005,-0.004 0.006,-0.012 0.002,-0.017 -0.002,-0.002 -0.004,-0.004 -0.007,-0.004 -9.751,-2.141 -16.71,-10.763 -16.745,-20.746 V 0 c 0.023,-5.433 3.532,-10.237 8.7,-11.912 1.141,-0.391 2.382,0.216 2.774,1.357 0.075,0.22 0.114,0.45 0.117,0.682 0.006,0.935 -0.59,1.767 -1.477,2.062 -3.404,1.083 -5.723,4.237 -5.739,7.81 v 19.245 c 0.053,9.415 7.727,17.004 17.141,16.952 h 2.317 c 0.804,-0.007 1.46,0.639 1.467,1.443 v 0.004 1.819 c -0.006,0.67 -0.468,1.25 -1.12,1.405 -4.744,1.167 -8.084,5.415 -8.1,10.3 v 7.191 c -0.017,5.949 4.792,10.785 10.74,10.802 2.821,0.008 5.532,-1.091 7.552,-3.061 2.056,-1.982 3.216,-4.717 3.212,-7.573 v -7.357 c -0.026,-4.825 -3.284,-9.033 -7.95,-10.264 -0.741,-0.191 -1.261,-0.855 -1.269,-1.62 v -1.4 c 0.008,-0.933 0.767,-1.686 1.7,-1.686 h 2.074 c 9.415,0.051 17.088,-7.538 17.141,-16.953 V 0.015 c -0.025,-4.569 -3.75,-8.252 -8.319,-8.227 h -15.483 c -0.006,0 -0.012,-0.005 -0.013,-0.012 v -4.307 c 10e-4,-0.007 0.007,-0.012 0.013,-0.012 h 15.5 c 4.312,-0.02 8.336,2.159 10.678,5.78"
         fill="#ffffff"
         id="path12" />
    </g>
  </g>
</svg>
