<?xml version="1.0" encoding="UTF-8" standalone="no"?>
<svg
   xmlns:dc="http://purl.org/dc/elements/1.1/"
   xmlns:cc="http://creativecommons.org/ns#"
   xmlns:rdf="http://www.w3.org/1999/02/22-rdf-syntax-ns#"
   xmlns:svg="http://www.w3.org/2000/svg"
   xmlns="http://www.w3.org/2000/svg"
   xmlns:sodipodi="http://sodipodi.sourceforge.net/DTD/sodipodi-0.dtd"
   xmlns:inkscape="http://www.inkscape.org/namespaces/inkscape"
   width="31.597546mm"
   height="29.972836mm"
   viewBox="0 0 31.597546 29.972836"
   version="1.1"
   id="svg685"
   inkscape:version="1.0.2-2 (e86c870879, 2021-01-15)"
   sodipodi:docname="events.svg">
  <defs
     id="defs679">
    <clipPath
       id="cp25">
      <path
         transform="matrix(1,0,0,-1,0,768)"
         d="m 66.5,393.5 h 121 v 121.001 h -121 z"
         id="path47" />
    </clipPath>
  </defs>
  <sodipodi:namedview
     id="base"
     pagecolor="#ffffff"
     bordercolor="#666666"
     borderopacity="1.0"
     inkscape:pageopacity="0.0"
     inkscape:pageshadow="2"
     inkscape:zoom="0.35"
     inkscape:cx="1205.4262"
     inkscape:cy="816.64159"
     inkscape:document-units="mm"
     inkscape:current-layer="layer1"
     inkscape:document-rotation="0"
     showgrid="false"
     inkscape:window-width="1258"
     inkscape:window-height="1040"
     inkscape:window-x="1810"
     inkscape:window-y="0"
     inkscape:window-maximized="0" />
  <metadata
     id="metadata682">
    <rdf:RDF>
      <cc:Work
         rdf:about="">
        <dc:format>image/svg+xml</dc:format>
        <dc:type
           rdf:resource="http://purl.org/dc/dcmitype/StillImage" />
        <dc:title></dc:title>
      </cc:Work>
    </rdf:RDF>
  </metadata>
  <g
     inkscape:label="Capa 1"
     inkscape:groupmode="layer"
     id="layer1"
     transform="translate(213.10235,67.903087)">
    <g
       clip-path="url(#cp25)"
       id="g52"
       transform="matrix(0.35277777,0,0,0.35277777,-241.91714,-163.70158)">
      <path
         transform="matrix(1,0,0,-1,169.0117,310.9398)"
         d="m 0,0 c 2.02,1.919 2.747,4.833 1.869,7.477 -0.87,2.657 -3.181,4.584 -5.951,4.962 l -20.482,2.938 c -0.956,0.135 -1.784,0.73 -2.216,1.592 l -9.088,18.208 c -1.259,2.562 -3.859,4.192 -6.714,4.208 -2.787,0.005 -5.336,-1.57 -6.579,-4.064 l -9.157,-18.35 c -0.432,-0.862 -1.259,-1.457 -2.212,-1.594 l -20.484,-2.942 c -2.769,-0.377 -5.08,-2.303 -5.951,-4.958 -0.878,-2.643 -0.151,-5.554 1.865,-7.474 l 14.82,-14.29 c 0.38,-0.369 0.652,-0.834 0.786,-1.346 h 4.49 c -0.176,1.705 -0.949,3.294 -2.184,4.483 L -81.951,3.077 c -0.817,0.766 -1.131,1.926 -0.813,3 0.33,1.083 1.264,1.873 2.387,2.018 l 20.481,2.943 c 2.391,0.338 4.465,1.829 5.549,3.988 l 9.159,18.353 c 0.738,1.457 2.516,2.04 3.974,1.303 0.562,-0.284 1.019,-0.741 1.303,-1.303 l 9.159,-18.353 c 1.085,-2.159 3.159,-3.65 5.551,-3.988 L -4.722,8.095 C -3.612,7.952 -2.687,7.179 -2.347,6.114 -1.987,5.06 -2.278,3.892 -3.092,3.131 L -17.911,-11.15 c -1.735,-1.665 -2.528,-4.083 -2.119,-6.453 l 3.5,-20.172 c 0.201,-1.097 -0.257,-2.21 -1.172,-2.847 -0.904,-0.665 -2.11,-0.751 -3.1,-0.221 l -18.318,9.52 c -2.151,1.117 -4.71,1.117 -6.86,0 l -18.318,-9.524 c -0.989,-0.53 -2.195,-0.444 -3.099,0.221 -0.916,0.637 -1.374,1.75 -1.171,2.847 l 1.49,8.6 c 0.182,1.209 -0.65,2.337 -1.859,2.52 -1.177,0.178 -2.286,-0.609 -2.505,-1.78 l -1.464,-8.442 c -0.74,-3.995 1.899,-7.833 5.893,-8.572 1.629,-0.302 3.313,-0.045 4.778,0.73 l 18.316,9.524 c 0.858,0.446 1.881,0.446 2.739,0 l 18.318,-9.524 c 3.591,-1.899 8.041,-0.526 9.939,3.065 0.772,1.46 1.029,3.137 0.733,4.762 l -3.475,20.031 c -0.163,0.946 0.154,1.911 0.847,2.576 z"
         fill="#ffffff"
         id="path50" />
    </g>
  </g>
</svg>
