<?xml version="1.0" encoding="UTF-8" standalone="no"?>
<svg
   xmlns:dc="http://purl.org/dc/elements/1.1/"
   xmlns:cc="http://creativecommons.org/ns#"
   xmlns:rdf="http://www.w3.org/1999/02/22-rdf-syntax-ns#"
   xmlns:svg="http://www.w3.org/2000/svg"
   xmlns="http://www.w3.org/2000/svg"
   xmlns:sodipodi="http://sodipodi.sourceforge.net/DTD/sodipodi-0.dtd"
   xmlns:inkscape="http://www.inkscape.org/namespaces/inkscape"
   width="20"
   height="20"
   version="1.1"
   id="svg13"
   sodipodi:docname="exit-session.svg"
   inkscape:version="1.0.2-2 (e86c870879, 2021-01-15)">
  <metadata
     id="metadata19">
    <rdf:RDF>
      <cc:Work
         rdf:about="">
        <dc:format>image/svg+xml</dc:format>
        <dc:type
           rdf:resource="http://purl.org/dc/dcmitype/StillImage" />
      </cc:Work>
    </rdf:RDF>
  </metadata>
  <defs
     id="defs17" />
  <sodipodi:namedview
     pagecolor="#ffffff"
     bordercolor="#666666"
     borderopacity="1"
     objecttolerance="10"
     gridtolerance="10"
     guidetolerance="10"
     inkscape:pageopacity="0"
     inkscape:pageshadow="2"
     inkscape:window-width="1920"
     inkscape:window-height="1017"
     id="namedview15"
     showgrid="false"
     inkscape:zoom="17.708333"
     inkscape:cx="9.231234"
     inkscape:cy="12.796706"
     inkscape:window-x="1672"
     inkscape:window-y="-8"
     inkscape:window-maximized="1"
     inkscape:current-layer="svg13" />
  <g
     id="g5"
     transform="translate(-2,-2)">
    <title
       id="title2">background</title>
    <rect
       fill="none"
       id="canvas_background"
       height="402"
       width="582"
       y="-1"
       x="-1" />
  </g>
  <g
     id="g11"
     transform="translate(-2,-2)">
    <title
       id="title7">Layer 1</title>
    <path
       fill="#bf0000"
       id="svg_1"
       d="m 12,10 c 1.1,0 2,-0.9 2,-2 V 4 C 14,2.9 13.1,2 12,2 10.9,2 10,2.9 10,4 v 4 c 0,1.1 0.9,2 2,2 z" />
    <path
       fill="#bf0000"
       id="svg_2"
       d="m 19.1,4.9 v 0 C 18.8,4.6 18.5,4.5 18,4.5 c -0.8,0 -1.5,0.7 -1.5,1.5 0,0.4 0.2,0.8 0.4,1.1 v 0 c 0,0 0,0 0,0 0,0 0,0 0,0 1.3,1.3 2,3 2,4.9 0,3.9 -3.1,7 -7,7 -3.9,0 -7,-3.1 -7,-7 0,-1.9 0.8,-3.7 2.1,-4.9 v 0 C 7.3,6.8 7.5,6.4 7.5,6 7.5,5.2 6.8,4.5 6,4.5 5.6,4.5 5.2,4.7 4.9,4.9 v 0 C 3.1,6.7 2,9.2 2,12 2,17.5 6.5,22 12,22 17.5,22 22,17.5 22,12 22,9.2 20.9,6.7 19.1,4.9 Z" />
  </g>
</svg>
