<svg id="Grupo_882" data-name="Grupo 882" xmlns="http://www.w3.org/2000/svg" xmlns:xlink="http://www.w3.org/1999/xlink" width="30" height="30" viewBox="0 0 30 30">
  <defs>
    <clipPath id="clip-path">
      <rect id="Rectángulo_853" data-name="Rectángulo 853" width="30" height="30" fill="#6bc46b"/>
    </clipPath>
  </defs>
  <g id="Grupo_881" data-name="Grupo 881" clip-path="url(#clip-path)">
    <path id="Trazado_481" data-name="Trazado 481" d="M15,1.22A13.784,13.784,0,0,1,20.364,27.7,13.784,13.784,0,0,1,9.636,2.3,13.693,13.693,0,0,1,15,1.22M15,0A15,15,0,1,0,30,15,15,15,0,0,0,15,0" fill="#6bc46b"/>
    <path id="Trazado_482" data-name="Trazado 482" d="M99.663,109.578l-.876,1.388a1.216,1.216,0,0,1-1.007.569h-.025a1.219,1.219,0,0,1-1-.528l-5.214-7.575a1.25,1.25,0,0,1-.227-.79,1.221,1.221,0,0,1,1.215-1.142,1.233,1.233,0,0,1,.224.021,1.211,1.211,0,0,1,.783.508l4.179,6.072,8.117-12.866,2.063,1.3-6.733,10.671a.61.61,0,0,0,1.031.651l7.383-11.7-4.126-2.6-7.781,12.332-3.13-4.548a2.431,2.431,0,0,0-1.875-1.053,2.4,2.4,0,0,0-1.252.268,2.44,2.44,0,0,0-.891,3.551l5.228,7.6a2.438,2.438,0,0,0,2.009,1.056h.05a2.435,2.435,0,0,0,2.012-1.137l.875-1.386Z" transform="translate(-84.595 -87.849)" fill="#6bc46b"/>
  </g>
</svg>
