<?xml version="1.0" encoding="UTF-8" standalone="no"?>
<svg
   xmlns:dc="http://purl.org/dc/elements/1.1/"
   xmlns:cc="http://creativecommons.org/ns#"
   xmlns:rdf="http://www.w3.org/1999/02/22-rdf-syntax-ns#"
   xmlns:svg="http://www.w3.org/2000/svg"
   xmlns="http://www.w3.org/2000/svg"
   xmlns:sodipodi="http://sodipodi.sourceforge.net/DTD/sodipodi-0.dtd"
   xmlns:inkscape="http://www.inkscape.org/namespaces/inkscape"
   width="31.009377mm"
   height="32.356373mm"
   viewBox="0 0 31.009377 32.356373"
   version="1.1"
   id="svg827"
   inkscape:version="1.0.2-2 (e86c870879, 2021-01-15)"
   sodipodi:docname="subscription.svg">
  <defs
     id="defs821">
    <clipPath
       id="cp23">
      <path
         transform="matrix(1,0,0,-1,0,768)"
         d="M 615.012,394.423 H 734.885 V 514.297 H 615.012 Z"
         id="path31" />
    </clipPath>
  </defs>
  <sodipodi:namedview
     id="base"
     pagecolor="#ffffff"
     bordercolor="#666666"
     borderopacity="1.0"
     inkscape:pageopacity="0.0"
     inkscape:pageshadow="2"
     inkscape:zoom="0.35"
     inkscape:cx="1215.7433"
     inkscape:cy="861.14591"
     inkscape:document-units="mm"
     inkscape:current-layer="layer1"
     inkscape:document-rotation="0"
     showgrid="false"
     inkscape:window-width="1258"
     inkscape:window-height="1040"
     inkscape:window-x="1888"
     inkscape:window-y="0"
     inkscape:window-maximized="0" />
  <metadata
     id="metadata824">
    <rdf:RDF>
      <cc:Work
         rdf:about="">
        <dc:format>image/svg+xml</dc:format>
        <dc:type
           rdf:resource="http://purl.org/dc/dcmitype/StillImage" />
        <dc:title></dc:title>
      </cc:Work>
    </rdf:RDF>
  </metadata>
  <g
     inkscape:label="Capa 1"
     inkscape:groupmode="layer"
     id="layer1"
     transform="translate(215.83207,79.678188)">
    <g
       clip-path="url(#cp23)"
       id="g36"
       transform="matrix(0.35277777,0,0,0.35277777,-438.23396,-174.47499)">
      <path
         transform="matrix(1,0,0,-1,700.6279,345.0062)"
         d="m 0,0 v 1.4 c 0.037,6.655 -2.947,12.968 -8.115,17.161 -0.066,0.069 -0.136,0.134 -0.211,0.193 -2.282,1.809 -4.931,3.101 -7.761,3.788 3.099,2.932 4.844,7.017 4.82,11.282 v 7.232 c -0.001,1.332 -0.165,2.658 -0.489,3.949 -1.472,6.758 -7.45,11.58 -14.366,11.588 -8,-0.121 -14.357,-7.1 -14.357,-15.447 v -7.232 c -0.013,-3.477 1.143,-6.858 3.282,-9.6 0.479,-0.62 1.007,-1.202 1.576,-1.74 -9.394,-2.218 -16.125,-10.942 -16.125,-21.079 v -2.184 c -8.811,7.941 -13.817,19.263 -13.761,31.124 0,22.589 17.611,40.966 39.258,40.966 21.647,0 39.261,-18.382 39.261,-40.97 C 13.065,18.927 8.36,7.913 0.012,-0.003 m -47.533,1.481 c -0.029,5.121 2.189,9.998 6.068,13.341 0.201,0.074 0.389,0.179 0.557,0.311 2.827,2.245 6.328,3.471 9.938,3.482 h 2.242 c 0.795,0.017 1.426,0.675 1.409,1.47 v 1.848 c 0.002,0.542 -0.294,1.041 -0.77,1.3 -0.156,0.116 -0.333,0.203 -0.52,0.256 -2.348,0.675 -4.383,2.159 -5.745,4.188 -0.039,0.059 -0.079,0.119 -0.118,0.179 l -0.042,0.064 c -1.105,1.772 -1.69,3.82 -1.686,5.908 v 7.3 c 0,5.961 4.572,10.883 10.192,10.973 2.035,0.035 4.031,-0.555 5.72,-1.69 2.983,-2.108 4.748,-5.54 4.726,-9.192 v -7.3 c 0.071,-4.853 -3.13,-9.147 -7.8,-10.468 -0.641,-0.177 -1.084,-0.762 -1.078,-1.428 v -1.848 c -0.009,-0.665 0.433,-1.252 1.075,-1.427 0.201,-0.088 0.417,-0.133 0.636,-0.133 h 2 c 9.116,0 16.506,-7.712 16.506,-17.225 V -3.46 c -8.767,-6.28 -19.796,-8.519 -30.317,-6.157 -1.284,0.263 -2.537,-0.565 -2.8,-1.849 -0.037,-0.177 -0.053,-0.357 -0.048,-0.538 -0.015,-1.134 0.757,-2.128 1.86,-2.395 3.043,-0.685 6.154,-1.03 9.273,-1.029 24.279,0 44.028,20.679 43.946,46.014 -0.082,25.44 -20.118,46.068 -44.599,45.7 C -50.883,75.922 -70.277,55.302 -70.197,30.27 -70.26,13.849 -61.605,-1.373 -47.462,-9.717"
         fill="#ffffff"
         id="path34" />
    </g>
  </g>
</svg>
