<svg id="Grupo_880" data-name="Grupo 880" xmlns="http://www.w3.org/2000/svg" xmlns:xlink="http://www.w3.org/1999/xlink" width="30" height="30" viewBox="0 0 30 30">
  <defs>
    <clipPath id="clip-path">
      <rect id="Rectángulo_852" data-name="Rectángulo 852" width="30" height="30" fill="#c46262"/>
    </clipPath>
  </defs>
  <g id="Grupo_879" data-name="Grupo 879" clip-path="url(#clip-path)">
    <path id="Trazado_478" data-name="Trazado 478" d="M15,1.22A13.784,13.784,0,0,1,20.364,27.7,13.784,13.784,0,0,1,9.636,2.3,13.693,13.693,0,0,1,15,1.22M15,0A15,15,0,1,0,30,15,15,15,0,0,0,15,0" fill="#c46262"/>
    <path id="Trazado_479" data-name="Trazado 479" d="M204.977,324.47a.5.5,0,0,1,.5.5v1.259a.5.5,0,0,1-.5.5h-1.259a.5.5,0,0,1-.5-.5v-1.259a.5.5,0,0,1,.5-.5h1.259m0-1.22h-1.259A1.72,1.72,0,0,0,202,324.968v1.259a1.72,1.72,0,0,0,1.718,1.718h1.259a1.72,1.72,0,0,0,1.718-1.718v-1.259a1.72,1.72,0,0,0-1.718-1.718" transform="translate(-189.683 -303.54)" fill="#c46262"/>
    <path id="Trazado_480" data-name="Trazado 480" d="M204.321,99.251A2.407,2.407,0,0,0,202,101.673V106.8a.61.61,0,0,0,1.22,0v-5.14a1.177,1.177,0,0,1,1.116-1.185,1.159,1.159,0,0,1,1.2,1.158v8.2a1.177,1.177,0,0,1-1.116,1.186,1.159,1.159,0,0,1-1.2-1.158v-.808H202v.763a2.407,2.407,0,0,0,2.321,2.422,2.381,2.381,0,0,0,2.435-2.377v-8.232a2.381,2.381,0,0,0-2.435-2.377" transform="translate(-189.683 -93.198)" fill="#c46262"/>
  </g>
</svg>
