<svg xmlns="http://www.w3.org/2000/svg" width="27.826" height="31.242" viewBox="0 0 27.826 31.242">
  <g id="Grupo_1158" data-name="Grupo 1158" transform="translate(-972.327 -309.591)">
    <path id="Trazado_616" data-name="Trazado 616" d="M101.643,35.818h-.529V33.228a.818.818,0,0,0-.746-.825.8.8,0,0,0-.853.8v2.617H93.678V33.228a.818.818,0,0,0-.746-.825.8.8,0,0,0-.853.8v2.617H86.27V33.228a.818.818,0,0,0-.746-.825.8.8,0,0,0-.853.8v2.617h-.237a5.308,5.308,0,0,0-5.308,5.308V54.448a.8.8,0,1,0,1.6,0V41.126a3.709,3.709,0,0,1,3.709-3.709h.237V39.97a.818.818,0,0,0,.746.825.8.8,0,0,0,.853-.8V37.417h5.809V39.97a.818.818,0,0,0,.746.825.8.8,0,0,0,.853-.8V37.417h5.837V39.97a.818.818,0,0,0,.746.825.8.8,0,0,0,.853-.8V37.417h.529a3.709,3.709,0,0,1,3.709,3.709v17.21a3.709,3.709,0,0,1-3.709,3.709H84.433a3.709,3.709,0,0,1-3.709-3.709v-.449h-1.6v.449a5.308,5.308,0,0,0,5.308,5.308h17.21a5.308,5.308,0,0,0,5.308-5.308V41.126a5.308,5.308,0,0,0-5.308-5.308" transform="translate(893.202 277.189)" fill="#2c62a4"/>
    <rect id="Rectángulo_1014" data-name="Rectángulo 1014" width="1.599" height="15.912" transform="translate(977.444 320.603)" fill="#2c62a4"/>
    <rect id="Rectángulo_1015" data-name="Rectángulo 1015" width="1.599" height="12.234" transform="translate(980.643 324.281)" fill="#2c62a4"/>
    <rect id="Rectángulo_1016" data-name="Rectángulo 1016" width="1.599" height="10.795" transform="translate(983.841 325.721)" fill="#2c62a4"/>
    <rect id="Rectángulo_1017" data-name="Rectángulo 1017" width="1.599" height="15.272" transform="translate(987.04 321.243)" fill="#2c62a4"/>
    <rect id="Rectángulo_1018" data-name="Rectángulo 1018" width="1.599" height="5.757" transform="translate(990.238 330.758)" fill="#2c62a4"/>
    <rect id="Rectángulo_1019" data-name="Rectángulo 1019" width="1.599" height="12.234" transform="translate(993.437 324.281)" fill="#2c62a4"/>
  </g>
</svg>
