<svg xmlns="http://www.w3.org/2000/svg" xmlns:xlink="http://www.w3.org/1999/xlink" width="40" height="40" viewBox="0 0 40 40">
  <defs>
    <clipPath id="clip-path">
      <rect id="Rectángulo_93" data-name="Rectángulo 93" width="40" height="40" transform="translate(0)" fill="#1d5fbf"/>
    </clipPath>
  </defs>
  <g id="Grupo_69" data-name="Grupo 69" transform="translate(0)" clip-path="url(#clip-path)">
    <path id="Trazado_73" data-name="Trazado 73" d="M88.351,71.631V65.19a7.113,7.113,0,0,0-2.376-5.3,0,0,0,0,1,0-.006,5.68,5.68,0,0,1,4.554-2.294h.77a.484.484,0,0,0,.484-.484v-.608a.487.487,0,0,0-.371-.47,3.553,3.553,0,0,1-2.68-3.446V50.173a3.6,3.6,0,0,1,3.5-3.613,3.561,3.561,0,0,1,3.612,3.557v2.461a3.564,3.564,0,0,1-2.63,3.434.565.565,0,0,0-.42.542v.469a.564.564,0,0,0,.564.564h.686a5.671,5.671,0,0,1,5.671,5.671v6.433a2.752,2.752,0,0,1-2.752,2.752h-5.18v1.449h5.18a4.2,4.2,0,0,0,4.2-4.2V63.254a7.113,7.113,0,0,0-5.54-6.94,0,0,0,0,1,0-.007A4.978,4.978,0,0,0,97.3,52.578V50.2a5.007,5.007,0,1,0-10.013-.08v2.461a4.978,4.978,0,0,0,1.671,3.729,0,0,0,0,1,0,.007A7.083,7.083,0,0,0,84.8,59.031a0,0,0,0,1-.005,0,7.049,7.049,0,0,0-1.988-.783,0,0,0,0,1,0-.007,4.978,4.978,0,0,0,1.671-3.729V52.132a5.007,5.007,0,1,0-10.013-.08v2.461a4.978,4.978,0,0,0,1.671,3.729,0,0,0,0,1,0,.007,7.113,7.113,0,0,0-5.54,6.94v6.442a4.2,4.2,0,0,0,2.881,3.985.725.725,0,0,0,.468-1.372,2.752,2.752,0,0,1-1.9-2.613V65.194a5.671,5.671,0,0,1,5.671-5.671h.766a.484.484,0,0,0,.484-.484V58.43a.487.487,0,0,0-.371-.47,3.553,3.553,0,0,1-2.68-3.446V52.109a3.6,3.6,0,0,1,3.5-3.613,3.561,3.561,0,0,1,3.613,3.557v2.461a3.564,3.564,0,0,1-2.63,3.434.565.565,0,0,0-.42.542v.469a.564.564,0,0,0,.564.564h.686A5.671,5.671,0,0,1,86.9,65.194v6.433a2.752,2.752,0,0,1-2.752,2.752H79.026a0,0,0,0,0,0,0v1.441a0,0,0,0,0,0,0h5.127A4.174,4.174,0,0,0,87.686,73.9" transform="translate(-65.106 -41.478)" fill="#1d5fbf"/>
  </g>
</svg>
