<svg xmlns="http://www.w3.org/2000/svg" width="26.832" height="27.415" viewBox="0 0 26.832 27.415"><g transform="translate(-574.342 -449.022)"><path d="M244.849,147.805h-8.625v-1.617h8.625a.809.809,0,0,1,0,1.617" transform="translate(350.473 308.199)" fill="#1d5fbf"/><path d="M244.849,241.12h-8.625V239.5h8.625a.809.809,0,0,1,0,1.617" transform="translate(350.473 222.431)" fill="#1d5fbf"/><path d="M134.234,311.7h-5.9v-6.026h5.9Zm-4.315-1.617h2.732v-2.791h-2.732Z" transform="translate(449.822 161.611)" fill="#1d5fbf"/><path d="M134.234,124.592h-5.9v-6.026h5.9Zm-4.315-1.617h2.732v-2.791h-2.732Z" transform="translate(449.822 333.588)" fill="#1d5fbf"/><path d="M133,206.963a.765.765,0,0,1-.1-.007.8.8,0,0,1-.64-.515l-1.393-3.754a.814.814,0,0,1,.459-1.043.787.787,0,0,1,1.021.469l.866,2.334,3.543-5.109a.781.781,0,0,1,1.1-.192.82.82,0,0,1,.188,1.127l-4.4,6.347a.787.787,0,0,1-.646.341" transform="translate(447.543 259.66)" fill="#1d5fbf"/><path d="M244.849,241.12h-8.625V239.5h8.625a.809.809,0,0,1,0,1.617" transform="translate(350.473 229.431)" fill="#1d5fbf"/><path d="M80.129,79.836v27.415h3.789v-1.617H81.712V81.453h23.666v20.8a3.349,3.349,0,0,1-3.309,3.381l-9.6-.162v1.617l9.6.162a4.952,4.952,0,0,0,4.892-5V79.836Z" transform="translate(494.213 369.186)" fill="#1d5fbf"/></g></svg>