<svg id="icono_usuario" data-name="icono usuario" xmlns="http://www.w3.org/2000/svg" xmlns:xlink="http://www.w3.org/1999/xlink" width="40" height="40" viewBox="0 0 40 40">
  <defs>
    <clipPath id="clip-path">
      <rect id="Rectángulo_36" data-name="Rectángulo 36" width="40" height="40" fill="#bbb"/>
    </clipPath>
  </defs>
  <g id="Grupo_15" data-name="Grupo 15" clip-path="url(#clip-path)">
    <path id="Trazado_26" data-name="Trazado 26" d="M81.111,99.087H79.77a10.051,10.051,0,0,0-9.853,8.073,20,20,0,0,0,25.8,0,10.051,10.051,0,0,0-9.853-8.073h-1.2a.73.73,0,0,1-.73-.73v-.819a.735.735,0,0,1,.55-.707,6.406,6.406,0,0,0,4.729-6.174V86.4a6.4,6.4,0,1,0-12.792.1v4.163a6.405,6.405,0,0,0,4.834,6.2.59.59,0,0,1,.445.573V98.5a.591.591,0,0,1-.591.591" transform="translate(-62.819 -71.879)" fill="#bbb"/>
    <path id="Trazado_27" data-name="Trazado 27" d="M14.768,25.376a8.413,8.413,0,0,1-3.195-6.6v-4.26a8.426,8.426,0,0,1,16.853,0v4.26a8.413,8.413,0,0,1-3.195,6.6,12.119,12.119,0,0,1,9.355,8.306,20,20,0,1,0-29.173,0,12.119,12.119,0,0,1,9.355-8.306" fill="#bbb"/>
  </g>
</svg>
